<svg xmlns="http://www.w3.org/2000/svg" width="720" height="1080" viewBox="0 0 720 1080"><path d="M360 132.37c-153.433 0-264.92 165.575-264.92 394.62 0 86.1 15.453 163.37 43.6 226.287l1.105-33.667c-19.87-55.744-30.908-120.87-30.908-192.62C108.877 304.57 214.294 143.41 360 143.41s251.123 161.16 251.123 383.583c0 222.424-105.97 383.584-251.123 383.584-60.71 0-101-59.607-101-148.466 0-44.706 45.808-62.367 45.808-96.586 0-37.53-25.388-62.918-62.918-62.918-50.777 0-84.444 43.05-84.444 108.175 0 126.39 81.132 210.832 202.554 210.832 152.88 0 264.92-165.575 264.92-394.62 0-229.047-111.487-394.622-264.92-394.622z" fill="gray"/></svg>