<svg xmlns="http://www.w3.org/2000/svg" width="720" height="1080" viewBox="0 0 720 1080"><path d="M375.038 124.09c-3.863 9.383-11.038 19.87-47.465 35.876C290.595 175.97 226.02 206.88 226.02 247.17c0 36.977 25.94 61.813 64.575 61.813 30.355 0 55.192-24.836 55.192-55.743 0-35.875-34.22-40.842-34.22-54.088 0-19.87 18.766-36.427 41.947-36.427 11.038 0 21.524 7.175 21.524 32.01V880.22c0 16.006-7.175 30.356-82.787 30.356h-55.19v8.278h264.92v-8.278h-30.356c-75.613 0-82.788-14.35-82.788-30.356v-742.33c0-7.726-5.52-13.797-13.798-13.797z" fill="gray"/></svg>