<svg xmlns="http://www.w3.org/2000/svg" width="720" height="1080" viewBox="0 0 720 1080"><path d="M365.52 143.408c114.798 0 198.69 76.717 198.69 182.133 0 68.44-20.973 142.396-140.188 269.337L239.682 791.36c-64.023 67.885-114.247 108.727-123.078 109.83-3.31.553-4.967 3.313-4.967 5.52v6.623c0 3.864 3.312 5.52 5.52 5.52h485.687c3.863 0 5.52-3.312 5.52-5.52V761.556h-11.04v94.93c0 28.148-19.868 48.57-46.912 48.57H155.24c-9.384 0-13.248-1.105-13.248-3.313 0-2.76 4.416-6.623 12.143-12.694 23.18-18.214 56.295-49.122 94.378-89.964l184.34-196.482C552.62 475.11 578.008 397.842 578.008 325.54c0-112.038-89.41-193.17-212.49-193.17-142.946 0-237.875 64.574-237.875 161.16 0 65.126 33.667 108.176 84.443 108.176 37.53 0 62.92-25.39 62.92-62.92 0-34.218-45.81-51.88-45.81-96.585 0-59.054 54.64-98.792 136.323-98.792z" fill="gray"/></svg>