<svg xmlns="http://www.w3.org/2000/svg" width="720" height="1080" viewBox="0 0 720 1080"><path d="M346.202 132.37c-142.947 0-237.877 64.574-237.877 161.16 0 65.126 33.667 108.176 84.444 108.176 37.53 0 62.918-25.39 62.918-62.92 0-34.218-45.81-51.88-45.81-96.585 0-59.054 54.64-98.792 136.324-98.792 122.526 0 212.488 66.23 212.488 157.297 0 64.574-46.913 124.733-153.433 152.33h-9.382c-8.28 0-12.143 2.758-12.143 5.518V471.8c0 2.76 3.864 5.518 12.143 5.518h9.382c129.15 18.765 208.625 83.892 208.625 206.97 0 131.356-117.006 226.286-278.718 226.286-112.04 0-172.2-43.05-205.866-81.684-14.9-17.11-25.94-57.95-25.94-74.51v-12.14H92.32v52.43c0 .553.552 1.657 1.104 2.76 26.492 42.498 86.1 124.182 241.74 124.182 169.438 0 292.516-99.897 292.516-237.325 0-129.7-88.307-198.69-220.767-218.007v-2.208c109.28-28.148 165.575-91.618 165.575-163.367 0-97.69-95.48-168.335-226.286-168.335z" fill="gray"/></svg>