<svg xmlns="http://www.w3.org/2000/svg" width="720" height="1080" viewBox="0 0 720 1080"><path d="M384.284 199.152c0-114.8-65.678-188.756-162.263-188.756-65.126 0-108.175 33.667-108.175 84.443 0 37.53 25.388 62.918 62.918 62.918 34.22 0 51.88-45.81 96.586-45.81 59.054 0 98.792 34.22 98.792 86.652 0 125.285-46.913 231.253-112.04 326.735-51.88 76.165-124.733 155.64-184.34 225.183v16.557h427.185c14.9 0 19.87 7.175 19.87 19.317v93.826c0 16.006-7.176 30.356-82.79 30.356h-55.19v8.278h259.4v-8.278h-24.836c-75.61 0-82.786-14.35-82.786-30.356v-93.826c0-12.142 4.967-19.317 19.87-19.317h71.196v-13.798h-71.197c-14.902 0-19.87-6.623-19.87-18.765V339.34c-8.278 0-13.797 6.07-13.797 13.797v381.375c0 12.142-4.968 18.765-19.87 18.765h-394.62c-14.902 0-12.695-9.382-4.416-18.765 60.16-68.99 119.766-136.324 168.335-207.52 64.574-95.483 109.832-202.003 112.04-327.84z" fill="gray"/></svg>