<svg xmlns="http://www.w3.org/2000/svg" width="720" height="1080" viewBox="0 0 720 1080"><path d="M138.13 135.13v5.518c0 9.935-.553 27.596-1.105 35.875l-20.42 278.72 19.316-1.105c56.297-44.706 140.19-76.165 210.282-76.165 183.79 0 275.96 131.908 275.96 264.92 0 135.22-95.483 267.68-291.966 267.68-84.995 0-141.842-39.737-141.842-98.793 0-44.705 45.81-62.366 45.81-96.585 0-37.53-25.39-62.92-62.92-62.92-50.776 0-84.443 43.05-84.443 108.177 0 96.586 97.138 161.16 243.396 161.16 202.554 0 303.003-137.98 303.003-278.718 0-137.98-96.586-275.96-286.998-275.96-64.022 0-138.53 24.837-194.827 62.367-10.486 7.176-22.077 7.728-20.42-13.797l17.11-237.876c1.102-16.558 1.102-21.525 1.102-28.7h360.955c38.082 0 60.71 19.87 64.022 60.16l5.52 59.054 9.382-1.102-9.935-126.942c0-2.207-2.206-4.967-5.518-4.967H138.13z" fill="gray"/></svg>