<svg xmlns="http://www.w3.org/2000/svg" width="720" height="1080" viewBox="0 0 720 1080"><path d="M348.962 921.612c157.296 0 270.44-119.214 270.44-284.238 0-166.68-105.97-286.997-253.883-286.997-124.734 0-208.074 68.99-208.074 172.2 0 56.846 33.667 94.376 84.444 94.376 30.907 0 54.64-20.972 54.64-50.224 0-38.635-43.05-45.258-43.05-89.964 0-68.99 44.705-115.35 112.04-115.35 139.634 0 240.083 115.902 240.083 275.958 0 158.4-106.52 273.2-256.64 273.2-140.74 0-234.566-148.466-234.566-371.44 0-258.298 107.624-395.726 262.16-395.726 34.22 0 68.438 4.415 101.553 13.798 23.18 6.623 36.427 33.667 36.427 48.57v12.14h11.038v-52.43c0-2.76-1.655-4.417-3.31-4.97-45.258-18.764-96.035-28.146-145.707-28.146-162.816 0-275.407 145.706-275.96 406.763 0 229.598 99.346 382.48 248.364 382.48z" fill="gray"/></svg>