<svg xmlns="http://www.w3.org/2000/svg" width="720" height="1080" viewBox="0 0 720 1080"><path d="M93.7 135.13l-5.52 121.42h11.04l2.207-46.36c2.207-41.394 26.492-61.263 64.574-61.263h424.426c16.005 0 18.765 6.07 9.934 19.317l-57.95 87.203c-51.33 77.27-106.52 150.674-150.123 243.948-63.47 135.772-141.29 309.074-141.29 397.933 0 107.624 50.776 178.82 126.388 178.82 38.083 0 63.47-25.387 63.47-63.47 0-75.06-83.89-75.06-105.415-158.4-8.83-34.22-12.143-69.542-12.143-99.897 0-87.754 46.362-176.06 80.03-249.466 41.944-92.17 96.032-165.023 147.913-242.844l80.58-121.422v-5.52H93.7z" fill="gray"/></svg>