<svg xmlns="http://www.w3.org/2000/svg" width="720" height="1080" viewBox="0 0 720 1080"><path d="M139.233 835.513v-16.558c-28.7-35.874-44.154-80.58-44.154-130.804 0-136.875 119.766-193.722 254.434-216.35C489.15 493.875 622.16 554.034 622.16 700.844c0 120.318-99.896 209.73-262.16 209.73-64.022 0-105.968-35.324-106.52-87.756 0-35.324 31.46-55.745 31.46-85.548 0-37.53-23.733-62.92-59.608-62.92-44.153 0-73.405 38.635-73.405 97.138.552 89.963 83.34 150.122 208.073 150.122 166.127 0 275.96-93.274 275.96-220.767 0-144.603-121.423-209.73-248.916-236.22 94.378-22.078 171.646-74.51 171.646-169.992 0-93.826-83.34-162.263-198.69-162.263-112.04 0-198.69 66.23-198.69 162.263 0 89.41 67.885 149.018 159.504 171.647C196.08 492.22 84.04 552.38 84.04 688.15c0 57.952 19.87 108.177 55.193 147.363zm408.42-540.88c0 96.034-84.996 146.81-189.86 164.472l-5.52-.552c-104.312-16.557-177.165-75.06-177.165-163.92.55-87.754 76.716-151.225 184.892-151.225 111.487 0 187.652 65.126 187.652 151.225z" fill="gray"/></svg>