<svg xmlns="http://www.w3.org/2000/svg" viewBox="0 0 720 1080" height="1080" width="720"><path d="M60.38 540.678q0-238.733 77.927-364.882Q216.237 49.646 360 49.646q142.42 0 220.35 126.15 79.27 126.15 79.27 364.882 0 237.377-79.27 363.526-77.93 126.15-220.35 126.15t-221.693-126.15Q60.38 778.054 60.38 540.678zm503.846 0q0-81.386-10.75-154.634-9.404-74.604-33.59-131.574-24.183-56.97-63.147-90.882-38.966-33.91-96.74-33.91-59.118 0-98.082 33.91-38.964 33.91-63.15 90.882-22.84 56.97-33.59 131.574-9.404 73.248-9.404 154.634 0 81.387 9.405 155.99 10.748 73.248 33.59 130.22 24.184 55.613 63.148 89.524 38.964 33.91 98.082 33.91 57.774 0 96.74-33.91 38.963-33.91 63.147-89.525 24.185-56.97 33.59-130.218 10.75-74.605 10.75-155.992z" font-weight="300" font-size="1350" font-family="Ubuntu" letter-spacing="0" word-spacing="0" fill="gray"/></svg>