<svg xmlns="http://www.w3.org/2000/svg" viewBox="0 0 720 1080" height="1080" width="720"><path d="M603.862 303.3q0 52.902-18.81 100.378-18.81 46.12-51.057 89.525-30.903 43.406-71.21 84.1-40.308 40.692-81.96 81.385-34.933 33.91-68.522 69.18-32.247 33.91-59.12 69.177-25.527 33.91-41.65 67.822-14.78 32.555-14.78 65.11v2.712H636.11v77.316H100.015q0-2.713-1.344-9.495v-23.058q0-63.753 22.843-118.01 22.84-55.615 57.774-104.446 36.277-48.832 79.272-90.882 44.337-42.05 84.645-81.386 33.59-32.555 63.15-62.396 30.902-31.2 53.743-63.753 22.84-32.556 36.277-69.18 13.435-36.623 13.435-80.03 0-94.95-51.056-135.643-49.713-42.05-126.298-42.05-42.995 0-76.584 10.852-33.59 10.85-59.118 25.77-24.185 13.565-41.652 28.486-17.466 14.92-25.528 23.06l-45.682-61.04q8.062-9.495 28.215-27.13 21.498-18.99 52.4-36.623 32.247-17.633 73.898-29.84 41.65-13.566 92.708-13.566 135.703 0 204.226 67.822 68.522 66.465 68.522 185.83z" font-weight="300" font-size="1350" font-family="Ubuntu" letter-spacing="0" word-spacing="0" fill="gray"/></svg>