<svg xmlns="http://www.w3.org/2000/svg" viewBox="0 0 720 1080" height="1080" width="720"><path d="M73.143 636.985q0-275.357 130.33-417.783 131.67-142.426 381.58-153.278l5.373 74.605q-81.96 5.424-151.826 25.77-68.523 18.99-122.267 61.04-53.743 40.694-90.02 105.803-36.277 65.11-49.713 160.06 36.277-18.99 87.333-32.555 51.057-14.92 108.83-14.92 75.242 0 127.642 24.415 52.4 23.06 84.647 62.397 32.246 39.336 47.025 90.88 14.78 51.546 14.78 108.516 0 52.9-16.123 105.802-16.123 52.9-51.057 96.308-33.59 42.05-85.99 69.178-51.056 27.13-122.266 27.13-146.45 0-223.036-103.09-75.24-104.446-75.24-290.28zm291.56-113.94q-61.806 0-108.83 14.92-45.683 13.565-85.99 32.555-2.688 23.06-2.688 36.624v31.198q0 63.752 8.06 120.723 9.406 56.97 32.247 100.376 24.185 43.407 63.15 69.18 38.963 24.416 99.425 24.416 49.713 0 84.646-17.634 34.934-18.99 56.43-48.832 21.498-29.84 30.904-69.178 10.748-39.337 10.748-82.743 0-108.516-48.37-160.06-47.025-51.546-139.732-51.546z" font-weight="300" font-size="1350" font-family="Ubuntu" letter-spacing="0" word-spacing="0" fill="gray"/></svg>