<svg xmlns="http://www.w3.org/2000/svg" viewBox="0 0 720 1080" height="1080" width="720"><path d="M360 1030.353q-65.836 0-119.58-18.99-52.4-18.99-91.364-52.902-37.62-35.266-59.118-81.385-20.154-47.475-20.154-103.09 0-47.475 13.436-85.455 13.436-39.337 34.934-69.178 22.84-31.198 51.056-54.258 29.56-24.416 61.805-42.05-81.96-40.693-111.518-96.307-29.56-55.614-29.56-120.723 0-58.327 20.155-105.802 20.154-47.475 55.087-80.03 36.276-33.91 85.99-51.545Q300.88 49.647 360 49.647q69.867 0 120.923 21.703 51.057 20.347 83.303 54.258 33.59 33.91 48.37 77.317 16.122 43.406 16.122 89.525 0 44.762-13.436 82.743-13.436 36.623-34.933 67.822-21.498 29.84-48.37 52.9-26.872 23.06-52.4 39.337 94.05 40.694 131.672 101.733 38.964 61.04 38.964 128.862 0 58.327-21.498 107.16-20.154 48.83-57.774 84.098-37.62 33.91-91.364 52.9-53.744 20.348-119.58 20.348zm197.508-256.367q0-58.327-22.84-94.95-21.5-36.625-57.776-59.684-34.933-23.06-80.615-36.624-44.34-13.565-90.02-28.485-68.524 32.554-106.144 88.168-37.62 54.26-37.62 131.576 0 37.98 12.09 70.535 12.094 32.555 36.278 56.97 25.53 24.417 61.807 39.338 37.62 13.564 87.333 13.564t85.99-13.564q37.62-14.92 61.805-39.337 25.528-24.415 37.62-56.97 12.093-32.554 12.093-70.534zM181.302 296.52q0 37.98 8.062 69.178 9.405 31.198 33.59 56.97 24.184 24.416 67.18 46.12 42.994 20.345 112.86 39.336 61.806-35.268 98.083-86.812 36.277-51.545 36.277-128.862 0-31.198-10.75-61.04-9.404-29.842-30.9-52.9-20.155-24.417-53.745-37.98-33.59-14.922-81.96-14.922-44.34 0-77.928 13.564-33.59 13.565-56.43 37.98-21.5 23.06-33.59 54.258-10.75 31.198-10.75 65.11z" font-weight="300" font-size="1350" font-family="Ubuntu" letter-spacing="0" word-spacing="0" fill="gray"/></svg>