<svg xmlns="http://www.w3.org/2000/svg" width="180" height="1080" viewBox="0 0 180 1080"><path d="M126.982 680.866q0 15.465-10.086 26.224-9.414 10.758-26.896 10.758T62.432 707.09q-9.414-10.76-9.414-26.224 0-15.465 9.414-26.223Q72.518 643.885 90 643.885t26.896 10.758q10.086 10.758 10.086 26.223zm0-281.732q0 15.465-10.086 26.223-9.414 10.758-26.896 10.758t-27.568-10.758q-9.414-10.758-9.414-26.223t9.414-26.224Q72.518 362.152 90 362.152t26.896 10.758q10.086 10.76 10.086 26.224z" font-weight="300" font-size="672.393" font-family="Ubuntu" letter-spacing="0" word-spacing="0" fill="gray"/></svg>