<svg xmlns="http://www.w3.org/2000/svg" width="720" height="1080" viewBox="0 0 720 1080"><path d="M353.245 945.86q-163.245 0-248.808-110.33Q20 725.2 20 527.053q0-198.146 91.192-294.967Q202.384 134.14 360 134.14q158.742 0 248.808 96.82Q700 327.78 700 539.437q0 211.656-91.192 309.603-91.192 96.82-255.563 96.82zm-102.45-448.08v100.2q0 109.205 1.126 154.238 2.252 45.034 12.385 93.444 10.132 48.41 32.65 63.047 22.515 13.508 52.913 13.508 30.397 0 45.033-3.377 15.762-3.376 27.02-13.51 12.385-11.257 20.265-21.39 7.88-11.258 12.385-33.774 5.63-22.517 9.006-41.656 3.378-19.14 4.503-56.29 2.25-72.054 2.25-145.233v-99.073q0-220.662-16.886-284.835-15.762-65.3-92.318-65.3t-93.444 66.425q-16.887 66.424-16.887 273.576z" font-size="1125.828" font-family="Abril Fatface" letter-spacing="0" word-spacing="0" fill="gray"/></svg>