<svg xmlns="http://www.w3.org/2000/svg" width="720" height="1080" viewBox="0 0 720 1080"><path d="M85.86 306.39q0-75.43 65.3-123.84 65.297-48.41 195.893-48.41t200.397 48.41q70.927 48.41 70.927 145.23 0 31.525-5.63 57.42-5.628 24.767-25.893 52.913-19.14 27.02-38.278 48.41-18.013 21.39-63.046 56.292-67.55 54.04-141.855 108.08-74.304 52.913-86.688 61.92L188.31 762.35h270.2q77.682 0 110.33-33.774Q601.49 694.8 615 622.748h19.14l-11.26 311.855H93.743V804.007L207.45 699.305Q323.41 593.477 371.82 511.29q48.412-83.31 48.412-182.383 0-100.198-21.39-136.225-21.392-37.152-72.054-37.152-50.662 0-70.927 25.894-20.264 25.894-20.264 49.536 0 23.643 6.755 41.656h33.776q9.006 23.642 9.006 57.417 0 32.65-28.145 57.417-28.146 23.643-74.305 23.643-46.16 0-72.053-29.272-24.77-30.396-24.77-75.43z" font-size="1125.828" font-family="Abril Fatface" letter-spacing="0" word-spacing="0" fill="gray"/></svg>