<svg xmlns="http://www.w3.org/2000/svg" width="720" height="1080" viewBox="0 0 720 1080"><path d="M84.735 306.39q0-74.304 67.55-122.715 67.55-49.536 200.397-49.536 256.69 0 256.69 179.006 0 73.178-60.796 121.59-59.67 47.284-172.252 66.423v2.25q139.603 10.133 206.027 65.3 66.425 55.164 66.425 142.98 0 108.078-87.815 171.125-86.688 63.046-242.053 63.046-60.794 0-113.708-13.51-51.79-13.51-93.445-52.913-40.53-40.53-40.53-95.695 0-55.166 25.894-85.563 27.02-30.4 73.178-30.4 46.16 0 73.18 24.77 27.02 23.642 27.02 57.417 0 32.65-9.008 56.29h-34.9q-6.756 18.014-6.756 37.154 0 79.934 94.57 79.934 66.424 0 90.066-50.662 24.768-50.662 24.768-146.358 0-95.695-23.642-138.476-22.517-43.908-67.55-66.424-40.53 9.006-97.947 14.636l-3.378-24.77q99.073-10.13 129.47-47.283 31.523-37.153 31.523-131.722 0-95.696-19.14-136.225-18.012-41.656-61.92-41.656-43.907 0-63.046 27.02-18.014 25.894-18.014 49.536 0 23.643 6.755 41.656H275q9.007 23.642 9.007 57.417 0 32.65-28.146 57.417-28.145 23.643-74.304 23.643-46.16 0-72.053-29.272-24.768-30.396-24.768-75.43z" font-size="1125.828" font-family="Abril Fatface" letter-spacing="0" word-spacing="0" fill="gray"/></svg>