<svg xmlns="http://www.w3.org/2000/svg" width="720" height="1080" viewBox="0 0 720 1080"><path d="M410.662 671.16q0-106.955-19.14-149.736-18.012-42.782-83.31-42.782t-142.98 48.41l-19.14-9.006v-359.14l18.014-13.51q68.675 10.134 208.278 24.77 139.603 13.51 160.993 13.51 22.517 0 31.524-10.133 10.133-11.258 16.888-37.152l16.887 2.252q-16.887 172.252-43.907 204.9-14.636 16.888-37.152 16.888-22.517 0-94.57-19.14l-245.43-64.17-5.63 218.41q82.186-43.908 170-43.908 87.815 0 146.358 20.265 58.543 19.14 90.067 54.04 59.67 66.424 59.67 160.993 0 120.464-86.69 190.265-85.562 68.676-236.423 68.676-81.06 0-149.735-33.774-37.153-19.14-60.795-54.04Q81.92 822.02 81.92 775.86q0-47.284 25.895-77.68 27.02-30.4 73.178-30.4 47.285 0 73.18 23.644 27.02 22.516 27.02 59.67 0 36.025-10.133 61.92h-37.153q-6.755 18.012-6.755 42.78 0 23.643 19.14 46.16 19.138 21.39 56.29 21.39 37.153 0 56.292-11.258 19.14-12.384 29.272-29.27 10.132-16.89 15.76-52.915 6.756-51.787 6.756-158.74z" font-size="1125.828" font-family="Abril Fatface" letter-spacing="0" word-spacing="0" fill="gray"/></svg>