<svg xmlns="http://www.w3.org/2000/svg" width="720" height="1080" viewBox="0 0 720 1080"><path d="M44.205 587.848q0-217.285 96.822-335.497 97.947-118.21 267.947-118.21 115.96 0 177.88 47.284 61.92 46.16 61.92 121.59 0 42.78-28.145 74.304-27.02 30.397-72.054 30.397-45.033 0-72.053-23.642-27.02-24.768-27.02-57.417 0-33.775 9.007-58.543h36.026q6.755-18.014 6.755-40.53 0-70.927-79.932-70.927-79.934 0-117.086 83.31-37.153 82.186-38.28 284.835 58.544-91.19 170-91.19 111.458 0 175.63 60.794 64.173 59.67 64.173 180.132 0 120.464-84.437 195.894t-226.292 75.43q-320.86 0-320.86-358.012zm334.37-117.086q-38.277 0-65.297 29.27-25.894 28.147-36.026 67.55-9.007 38.28-9.007 101.325v86.69q1.126 23.64 3.378 57.416 3.377 32.65 9.006 48.41 5.628 14.637 15.76 31.524 18.014 29.27 57.418 29.27 39.404 0 58.543-14.634 20.266-15.762 29.273-51.788 13.51-52.914 13.51-131.722t-1.126-104.702q0-25.893-2.252-54.04-2.252-29.27-7.88-43.906-4.504-14.636-12.385-28.146-14.636-22.516-52.914-22.516z" font-size="1125.828" font-family="Abril Fatface" letter-spacing="0" word-spacing="0" fill="gray"/></svg>