<svg xmlns="http://www.w3.org/2000/svg" width="720" height="1080" viewBox="0 0 720 1080"><path d="M296.39 520.298q-109.205-5.63-170-54.04-60.794-49.536-60.794-127.218 0-94.57 75.43-149.735 75.43-55.166 220.663-55.166 145.23 0 219.535 51.787 74.305 51.788 74.305 139.603 0 86.69-57.417 137.35-57.418 49.537-165.497 57.418v3.377q243.18 20.265 243.18 206.027 0 108.08-76.558 162.12-75.43 54.04-236.423 54.04-318.61 0-318.61-215.034 0-190.265 252.186-207.153v-3.377zm164.372 209.404q0-104.702-20.265-149.735-20.265-45.033-78.808-45.033-57.418 0-77.683 46.16-20.265 45.032-20.265 149.734 0 103.576 19.14 147.483 20.264 43.908 79.933 43.908 59.668 0 78.808-43.907 19.14-45.032 19.14-148.608zm-97.947-571.92q-49.537 0-64.173 40.53-13.51 39.403-13.51 108.08 0 67.548 1.126 91.19 1.126 22.517 4.504 47.286 4.503 24.768 13.51 37.152 19.14 27.02 61.92 27.02 38.278 0 57.417-27.02 14.635-21.39 15.76-63.047 1.127-42.78 1.127-111.456 0-69.802-14.636-109.206-13.51-40.53-63.045-40.53z" font-size="1125.828" font-family="Abril Fatface" letter-spacing="0" word-spacing="0" fill="gray"/></svg>