<svg xmlns="http://www.w3.org/2000/svg" width="720" height="1080" viewBox="0 0 720 1080"><path d="M675.795 492.152q0 218.41-95.696 336.623Q485.53 945.86 316.655 945.86q-118.212 0-185.762-45.032Q64.47 855.795 64.47 783.742q0-45.033 27.02-77.682 28.146-33.775 73.18-33.775 46.158 0 72.052 24.768 27.02 23.642 27.02 57.417 0 32.65-9.007 57.417H220.96q-7.88 16.888-7.88 43.908 0 25.894 23.642 47.284 24.768 20.264 72.053 20.264 75.43 0 109.205-82.185 34.9-82.187 36.027-285.96-58.543 91.19-177.88 91.19-101.326 0-166.624-65.297-65.298-65.298-65.298-179.007 0-135.1 88.94-201.523 90.067-66.424 229.67-66.424 312.98 0 312.98 358.012zm-334.37 117.086q38.277 0 64.17-28.145 27.02-29.272 36.028-67.55 10.132-39.404 10.132-101.324 0-63.048-1.126-86.69 0-24.768-2.253-57.417-2.25-33.775-7.88-48.41-5.63-15.763-14.636-32.65-16.886-29.272-61.92-29.272-50.662 0-75.43 40.53-19.14 32.65-22.517 112.584-1.125 28.146-1.125 76.556v73.18q1.125 25.893 3.377 55.165 2.252 28.145 6.755 42.78 5.63 14.637 13.51 28.147 14.636 22.516 52.914 22.516z" font-size="1125.828" font-family="Abril Fatface" letter-spacing="0" word-spacing="0" fill="gray"/></svg>