<svg xmlns="http://www.w3.org/2000/svg" width="180" height="1080" viewBox="0 0 180 1080"><path d="M88.757 671.468q-35.647 0-53.884-20.725-17.41-21.554-17.41-51.397 0-30.672 18.24-51.397 19.065-20.725 53.054-20.725 33.988 0 53.883 17.408 19.896 17.41 19.896 52.226T143.47 651.57q-18.238 19.896-54.713 19.896zm0 274.393q-35.647 0-53.884-20.724-17.41-21.553-17.41-51.397 0-30.673 18.24-51.398 19.065-20.724 53.054-20.724 33.988 0 53.883 17.408 19.896 17.41 19.896 52.226 0 34.818-19.067 54.713-18.238 19.896-54.713 19.896z" font-size="828.983" font-family="Abril Fatface" letter-spacing="0" word-spacing="0" fill="gray"/></svg>