<svg xmlns="http://www.w3.org/2000/svg" width="960" height="960" viewBox="0 0 960.00001 960.00002"><g transform="translate(0 -92.362)" color="#000" fill="#888"><path style="isolation:auto;mix-blend-mode:normal" d="M528.82 614.788c1.44-1.494-42.347-11.22-40.303-11.58 2.045-.362-35.75 23.796-33.883 24.705 1.867.91-2.416-43.742-1.44-41.91.975 1.834-33.68-26.646-33.967-24.59-.288 2.057 40.854-15.814 39.413-14.32-1.442 1.494 14.935-40.264 12.89-39.903-2.044.362 27.666 33.967 25.8 33.058-1.868-.91 42.908 1.762 41.932-.07-.975-1.833-23.755 36.807-23.468 34.75.288-2.055 11.585 41.354 13.026 39.86z" overflow="visible" solid-color="#000000" fill-rule="evenodd"/><circle style="isolation:auto;mix-blend-mode:normal" cx="480" cy="120.362" r="10" overflow="visible" opacity=".5" solid-color="#000000"/><circle r="10" cy="1024.362" cx="480" style="isolation:auto;mix-blend-mode:normal" overflow="visible" opacity=".5" solid-color="#000000"/><g transform="rotate(90 480 572.362)"><circle style="isolation:auto;mix-blend-mode:normal" cx="480" cy="120.362" r="10" overflow="visible" opacity=".5" solid-color="#000000"/><circle r="10" cy="1024.362" cx="480" style="isolation:auto;mix-blend-mode:normal" overflow="visible" opacity=".5" solid-color="#000000"/></g><g transform="rotate(30 480 572.362)"><circle style="isolation:auto;mix-blend-mode:normal" cx="480" cy="120.362" r="7" overflow="visible" opacity=".5" solid-color="#000000"/><circle r="7" cy="1024.362" cx="480" style="isolation:auto;mix-blend-mode:normal" overflow="visible" opacity=".5" solid-color="#000000"/></g><g transform="rotate(60 480 572.362)"><circle style="isolation:auto;mix-blend-mode:normal" cx="480" cy="120.362" r="7" overflow="visible" opacity=".5" solid-color="#000000"/><circle r="7" cy="1024.362" cx="480" style="isolation:auto;mix-blend-mode:normal" overflow="visible" opacity=".5" solid-color="#000000"/></g><g transform="rotate(120 480 572.362)"><circle style="isolation:auto;mix-blend-mode:normal" cx="480" cy="120.362" r="7" overflow="visible" opacity=".5" solid-color="#000000"/><circle r="7" cy="1024.362" cx="480" style="isolation:auto;mix-blend-mode:normal" overflow="visible" opacity=".5" solid-color="#000000"/></g><g transform="rotate(150 480 572.362)"><circle r="7" cy="120.362" cx="480" style="isolation:auto;mix-blend-mode:normal" overflow="visible" opacity=".5" solid-color="#000000"/><circle style="isolation:auto;mix-blend-mode:normal" cx="480" cy="1024.362" r="7" overflow="visible" opacity=".5" solid-color="#000000"/></g></g></svg>