<svg xmlns="http://www.w3.org/2000/svg" width="960" height="960" viewBox="0 0 960.00001 960.00002"><path style="isolation:auto;mix-blend-mode:normal" d="M507.84 42.315c.48-.832-20.286.052-19.408-.338.878-.39-13.676 14.45-12.736 14.65.94.2-6.32-19.278-5.676-18.564.643.714-17.97-8.54-17.868-7.585.1.956 16.38-11.967 15.9-11.134-.48.832 2.57-19.73 1.693-19.338-.878.39 16.443 11.882 15.503 11.682-.94-.2 19.558-3.653 18.915-4.367-.643-.713-6.22 19.312-6.32 18.356-.1-.956 9.517 17.47 9.998 16.64z" color="#000" overflow="visible" solid-color="#000000" fill="#888"/></svg>