<svg xmlns="http://www.w3.org/2000/svg" width="720" height="1080" viewBox="0 0 720 1080"><path d="M546.893 421.103l3.8 25.342q0 6.335-3.8 11.403-2.534 3.802-5.068 11.404-2.534 6.336-2.534 13.938 1.268 7.602 0 13.938 0 6.335-3.8 8.87-3.802 2.533-8.87 22.807-5.068 19.006-17.74 25.34-3.8 2.535-3.8 10.138h-2.534q-10.137 0-13.938 7.602-3.8 7.602-13.938 7.602-2.534 2.535-2.534 7.603 1.267 5.068-10.137 10.136-10.137 5.07-16.473 15.205-13.937 1.268-24.074 6.337-8.87 5.068-20.273 10.136h-10.137l-36.745 1.267q-10.136 0-17.74-1.267-6.334-2.534-15.204-1.267-7.602 1.267-15.205 1.267-6.336 0-17.74-2.534-11.403-2.535-17.74-7.603-5.067-5.07-15.203-2.534 0-6.336-5.07-5.07-3.8 1.268-8.868-2.533-3.802-3.8-11.405-13.938-7.602-11.403-13.938-15.205-2.534-5.068-2.534-13.937 0-8.87-3.8-8.87-3.802 0-6.336-2.534l-2.535-8.87-7.602-17.74q-3.8-8.868-8.87-15.203l1.268-11.404q0-11.405-3.802-13.94-2.534-3.8-7.602-24.073-5.068-20.273-5.068-48.15 0-57.017 49.415-116.57 3.803-12.67 7.604-12.67 3.8 0 8.87-6.336 6.335-6.334 10.136-12.67 5.068-7.602 12.67-12.67 7.603-5.068 8.87-7.603 1.267-3.8 3.8-2.534 2.536 1.267 7.604-5.068 7.602-3.8 13.938-5.068 6.335-2.534 11.403-7.603l8.87 1.267 69.69-3.8q8.868 6.335 16.47 12.67 8.87 5.07 13.94 13.94 13.936 2.533 25.34 12.67 11.404 8.87 19.006 13.937 7.603 3.8 11.405 5.068 3.8 1.267 12.67 10.137 10.137 7.602 22.808 27.876 12.67 19.006 26.608 35.478l-1.266 5.068q0 12.67 10.137 20.273-1.266 2.534-1.266 6.335 0 2.535 8.87 25.342v8.87zm-300.296-43.08l6.335 48.15q0 10.135 6.336 19.005 6.335 7.602 3.8 21.54 7.603 13.938 10.138 29.143l5.068 27.876q15.205 17.74 22.807 35.478 7.604 16.472 24.076 24.075 16.47 6.334 32.943 5.067 16.47-1.267 22.807-1.267 7.602 0 7.602 2.534l6.335 1.267q11.403 0 19.006-3.8 8.87-5.068 19.007-10.137 15.205-17.74 31.676-31.677 16.472-15.204 31.677-32.943v-3.802q-2.534-10.135 2.534-19.005 6.336-8.87 7.603-15.205 2.534-7.602 1.267-10.136V455.314l5.068-2.534q1.267-2.534 1.267-8.87 0-6.335-6.336-22.807l-2.534-35.478q-13.938-13.937-22.808-31.676-8.87-17.74-8.87-20.275h-3.8q-3.8 0-3.8-2.534 0-7.6-10.138-7.6-5.068 0-7.602-2.535 1.267-6.336-6.336-6.336-6.335-1.268-3.8-10.137-1.268 1.267-5.07 1.267-2.533 0-5.068-2.534-5.068-7.603-12.67-6.336-6.336 1.267-25.342-7.602l-17.74-8.87q0-1.267-1.266-1.267l-10.136 6.337q-1.268 0-2.535-3.802-7.603-12.67-32.944-12.67-24.075 0-31.677 3.8-6.337 16.473-17.74 20.274-1.267 19.005-17.74 27.875-2.533 13.937-7.602 27.875-3.8 13.938-3.8 29.143z" fill="gray"/></svg>