<svg xmlns="http://www.w3.org/2000/svg" width="720" height="1080" viewBox="0 0 720 1080"><path d="M519.65 460.383l1.268 25.34-3.8 24.075 2.533 50.683v63.355l-6.334 103.9 2.534 72.223 2.534 26.61q0 10.135-1.267 15.203-15.205 15.206-12.67 17.74-10.137 5.07-16.473 5.07h-2.534q-2.534 0-5.068 2.533-1.267 2.534-3.8 5.068-7.604 2.535-17.74 2.535-8.87 0-21.54-5.068-7.603-11.404-7.603-27.876l2.533-29.14-2.534-64.622q0-11.404 3.8-27.876 3.8-16.47 3.8-50.682l-2.533-101.366 2.534-31.677v-129.24l-5.067-49.417 5.068-41.814v-16.472q0-7.602-2.533-15.204h-1.267q-7.602 0-12.67 6.335-3.802 5.068-8.87 7.602-3.8 2.535-13.938 8.87-10.136 6.335-21.54 12.67-10.137 6.336-19.006 11.404-8.87 5.07-10.137 7.604-17.74 0-34.212 7.602-15.205 7.603-32.944 7.603-5.068 2.533-11.403 3.8-5.068 1.267-8.87 5.068-5.067-1.267-29.14-1.267-24.076 0-30.41-6.334l-1.268-12.67q0-10.138 12.67-13.94 13.938-5.067 20.274-5.067l20.273 2.533q11.402 0 43.08-8.87 70.955-20.273 124.172-73.49l12.67-12.67q13.94-13.938 13.94-31.677 2.533-65.888 29.142-65.888 19.006 0 25.34 19.006 6.336 17.74 7.603 26.61 2.535 7.6 3.802 12.67 2.533 5.068 2.533 8.87l-5.068 31.676 1.267 34.21q0 2.535 2.534 17.74 2.534 15.204 2.534 44.347 0 27.876 1.267 57.018l2.534 74.758z" fill="gray"/></svg>