<svg xmlns="http://www.w3.org/2000/svg" width="720" height="1080" viewBox="0 0 720 1080"><path d="M425.254 853.175h-16.472q-2.534 0-5.068-3.8-8.87 6.334-24.074 10.135-3.802-3.8-10.137-3.8l-15.205 1.266q-6.335 0-10.136-3.8l-29.143 11.403h-2.535q-3.8 1.266-15.205-5.07l-12.67 5.07q-6.336 2.533-12.672 2.533h-1.267l-2.533 5.068q-12.67 5.07-41.813 5.07l-15.205-2.535v-3.8l-2.535-15.206q0-6.336 6.335-17.74l10.137-16.472q6.335-8.87 15.205-19.006 8.87-13.938 15.205-27.875 6.335-13.938 17.74-24.075 0-24.074 36.744-73.49l5.07-2.534q17.738-35.478 20.272-54.484 5.068-2.534 6.335-7.603 1.268-5.067 5.07-7.6v-2.535q0-17.74 11.402-31.677 11.403-13.938 13.937-24.074 2.534-11.404 1.267-17.74v-13.937q0-7.603 5.07-19.006 6.334-11.403 6.334-20.272 1.267-8.87 3.8-13.938 3.802-6.336 7.604-13.938 5.068-8.87 3.8-13.938 0-5.068 1.268-10.136 3.8-1.268 5.068-6.336 6.336-3.8 13.938-70.956 7.602-67.155 7.602-72.223l-2.534-22.807v-38.012q0-43.08-10.136-55.752l-5.07-2.534q-1.266-2.534 0-5.068 1.268-3.8 1.268-6.335 0-3.802-5.068-10.137-5.068-6.335-12.67-16.472-7.603-10.137-19.007-21.54l-8.868 1.267q-6.336 0-13.938-2.534-6.335-3.803-12.67-5.07-1.268-5.068-5.07-5.068-3.8-1.267-1.266-10.136h-2.534q-7.603 0-8.87 7.602-1.267 6.335-6.335 10.137-12.672 3.8-27.877 8.87-15.205 3.8-21.54 16.47-10.136 0-19.006 6.336-8.87 6.337-8.87 16.473v1.267l-5.068 2.535q-2.535 6.335-5.07 11.403-1.266 5.068-5.067 10.137-2.535 3.8-7.603 6.335-5.068 1.267-3.8 7.603-3.802 2.534-12.672 2.534-1.267 10.136-7.602 21.54-6.336 10.137-6.336 21.54l2.535 10.137-5.07 29.142q0 20.274 7.604 36.746l-7.604 25.34 7.603 25.342q11.402 6.336 20.272 10.137 10.136 3.802 10.136 17.74 8.87-2.534 24.075-15.205 15.205-12.67 21.54-12.67 3.8-12.67 3.8-32.944 0-20.273-11.402-36.745 1.268-2.534 1.268-7.602L258 255.117v-3.8q13.938-10.138 22.808-10.138 10.137 0 26.608 16.47v5.07q0 2.533 2.535 5.068 7.603 2.534 6.336 7.602-1.267 5.068-1.267 8.87 0 3.8 2.533 7.602 3.8 2.534 5.068 7.602 1.268 5.07 0 11.404v19.006q0 1.267-2.533 1.267-1.267 0-5.068 5.07-2.535 3.8-1.268 8.87 1.267 3.8-1.267 6.334-7.603 3.802-12.67 11.404-5.07 6.335-12.672 8.87-7.602 10.136-11.403 19.006-13.938 6.335-27.876 11.403-13.938 3.802-27.876 8.87-6.335-5.068-11.403-11.404l-12.67-11.403q-3.802 1.267-13.94 1.267-10.135 0-19.005-3.802-5.068-3.8-5.068-15.205 0-11.403-6.335-21.54-2.535-10.136-1.267-19.006 1.267-10.136-1.268-16.472-1.267-7.602-3.8-10.136-2.535-6.336-2.535-17.74v-11.403q0-17.74-7.602-22.807 11.403-22.808 8.87-31.677 7.602-5.07 12.67-17.74 5.068-13.938 5.068-17.74 0-3.8-1.267-7.602 0-5.068 7.603-21.54l2.533-13.938 5.068-2.534q2.535-6.335 7.603-10.136 5.07-3.802 8.87-7.603 3.8-3.8 5.068-7.602 1.268-5.068 2.535-7.603 2.534-2.534 3.802-2.534 2.534 0 3.8-2.534 2.535-2.534 1.268-5.068 0-2.534 1.267-3.8 2.534-2.536 5.068-1.27 2.534 1.27 5.068-1.266 2.535-2.534 1.268-3.8-2.535-5.07 6.335-6.336 8.87-2.534 12.672-5.068l2.534-3.802h5.068l39.28-17.74h13.937l16.473-5.067q2.534 0 2.534 1.267t2.534 1.267h35.48l11.403-2.533q6.335 0 15.205 7.602 10.136 7.602 25.34 5.068 0 5.068 3.803 5.068 3.802-1.267 6.336 0 1.267 1.267 0 2.534l2.534 2.534q16.472 7.603 29.143 25.342l11.403 16.472 8.87 10.136q3.8 6.336 3.8 8.87 0 2.534 3.802 7.602 5.07 5.07 5.07 10.137 0 5.068 2.533 8.87l5.07 2.533q1.266 3.802 0 8.87 0 5.068 1.266 10.137l3.8 7.602q2.536 1.267 2.536 7.602l-1.268 20.274 2.535 25.342-2.536 17.74 2.535 13.937-5.07 17.738 2.534 12.67-5.068 20.274 1.267 10.136q0 7.603-7.602 22.808 0 53.217-24.074 108.968-7.602 17.74-16.472 26.608-3.8 29.143-12.67 38.013v16.47q0 3.803-7.603 15.206-6.334 11.405-8.868 17.74-2.534 5.07-2.534 10.137 0 5.068-3.802 13.938-2.534 7.602-12.67 22.807-10.137 13.938-8.87 25.342-6.335 6.335-10.136 7.602v1.267q0 8.87-8.87 26.61-8.87 17.738-11.404 20.272-1.267 1.267-2.534 1.267t-5.068 2.534q-3.8 5.068-5.068 11.404-1.267 5.068-8.87 6.335-2.534 22.807-17.74 32.944v2.533q1.268 10.137-5.067 15.205-6.336 3.8-7.604 12.67-10.136 7.603-16.47 16.472-6.337 8.87-13.94 16.472 5.07 5.07 11.404 5.07l24.075-5.07 15.205 1.268q17.74 0 35.478-5.07 19.006-5.067 35.478-7.6 17.74-2.535 36.745-1.268 20.274 0 34.212-8.87 5.068 2.534 30.41 2.534 26.608 0 68.42-13.937 6.337 7.6 11.405 10.135 5.068 2.534 5.068 12.67 0 8.87-11.403 16.473-10.137 7.602-19.006 7.602-7.603 0-12.67-3.8-12.672 5.067-27.877 5.067l-30.41-2.534q-10.137 0-19.007 6.336-7.602 5.067-20.273 3.8-12.67-1.267-19.006 6.335z" fill="gray"/></svg>