<svg xmlns="http://www.w3.org/2000/svg" width="720" height="1080" viewBox="0 0 720 1080"><path d="M156 746.74l8.87-43.08q0-8.87 2.535-19.006l5.068-5.068q2.534-10.136 8.87-19.006 7.602-10.137 11.403-20.273 17.74-11.404 50.683-17.74 34.21-6.334 50.682-6.334t24.075 3.8q11.403 3.802 27.875 26.61 17.74 21.54 17.74 29.142 0 6.335-2.535 8.87-1.267 1.267-3.8 6.335v2.534l-2.535 11.404q-6.336 1.267-10.137 5.068-3.8 3.8-8.87 7.602h-3.8q-7.603 1.267-13.938-3.8-5.07-5.07-11.404-8.87v-1.267q0-12.67-6.335-20.273-5.07-8.87-5.07-20.273h-2.533q-5.068 0-5.068-2.534t-5.068-2.534q-5.07 0-16.473 7.602l-3.802-1.267q-12.67 0-20.273 7.604-1.267-1.267-3.8-1.267l-16.473 1.267q-6.336 5.068-11.405 11.403l-10.136 12.67q-2.535 7.604-3.802 19.007 0 10.137-6.336 16.472 2.534 10.137 2.534 16.472 0 6.335-5.068 19.006 1.267 6.336 3.8 8.87 3.803 2.534 6.337 6.335 3.8 2.533 3.8 7.6 1.268 3.803 7.603 3.803v6.335q0 10.137 17.74 26.61 17.738 15.203 30.41 15.203v2.536q0 3.8 3.8 3.8 5.07 0 3.802 6.336 7.602-5.068 16.472-5.068l32.943 3.8q11.404 0 20.274-5.067 8.868-5.068 20.272-6.336 10.136-11.402 20.273-20.272 11.404-10.136 17.74-24.074 24.073-41.813 35.477-87.428 5.068-10.137 5.068-13.938l-2.534-8.87 5.068-31.676q0-22.808-3.8-41.814-2.535-20.273-3.802-43.08-3.8-11.404-11.404-20.273v-3.8q0-25.343-11.403-40.548-10.137-16.472-10.137-22.807-7.602-7.602-11.404-19.006-3.8-11.404-10.136-20.273h-5.068v-5.068q-5.07-5.068-11.404-5.068-5.068-1.267-10.137-3.8-3.802-2.535-5.07-3.802-1.266-2.534-3.8-3.802-2.534-2.534-5.07-2.534-2.533 0-5.067-3.8v-1.268l-17.74 6.335q-8.868 0-35.477 22.808-26.608 22.808-39.28 30.41-13.937-7.602-13.937-20.273 0-13.938 2.533-16.472 3.8-3.8 8.87-10.136 5.068-7.604 5.068-12.672 1.268-6.335 3.802-8.87 12.67-17.738 35.478-30.41 22.808-13.937 32.944-30.41 11.404-17.738 27.876-22.806 2.534-7.603 7.602-11.404 5.068-3.8 7.603-7.602 2.534-5.07 1.267-6.336 0-1.267 2.534-3.8l11.404-8.87q0-2.535 3.8-11.404 3.802-8.87 5.07-10.137 2.533-2.535 3.8-1.268 2.534 0 5.07-1.267 1.266-2.534 0-3.8 0-1.268 2.533-2.535l3.8-3.8q2.535-1.268 5.07-3.803 3.8-2.534 2.533-3.8 0-1.268 1.267-3.802l5.07-2.534q2.533-2.533 2.533-3.8 0-2.535 3.8-8.87 5.07-6.335 15.206-12.67 15.205-10.137 17.74-22.808 3.8-13.938 15.204-21.54 12.67-8.87 15.205-20.273-6.335-7.604-16.47-7.604l-44.35 7.603q-7.6 0-13.937-3.803-6.335-3.8-15.204-2.534-8.87 1.267-17.74 1.267t-13.938-5.068q-11.404 5.068-26.61 5.068-15.204 0-19.005-6.335-2.534 2.534-6.335 2.534h-7.603q-32.945 0-45.615-7.603-11.404-8.87-11.404-15.205 0-10.137 15.206-10.137 15.205-1.267 19.006-1.267h74.757q7.602-2.534 13.937-2.534l15.205 5.068 25.34-2.534 35.48 2.534h50.682L527.254 98h16.472q10.136 3.8 20.273 21.54-3.803 7.603-10.138 10.137-5.068 2.534-10.136 6.335l-7.603 15.205q-3.8 7.602-8.87 12.67-3.8 3.802-8.87 5.07-3.8 0-7.6 2.533-2.536 2.534-5.07 6.335-1.267 3.802-7.602 1.268-2.533 2.534-2.533 7.602 0 5.068-8.87 13.938-8.87 8.87-20.273 25.34-11.404 15.206-29.143 31.678-17.738 16.473-27.874 38.013-6.336 6.336-13.938 12.67-7.602 6.336-12.67 11.405-3.802 5.068-3.802 7.602 0 1.267-3.8 6.335-3.802 3.802-8.87 7.603-3.802 2.534-6.336 10.136-13.938 3.802-19.006 17.74 5.068 8.87 16.472 11.403 11.404 1.267 19.006 3.8h1.267q3.8-1.266 3.8 3.803 1.267 5.068 5.07 5.068 6.334 1.267 12.67 1.267 13.937 2.534 16.47 8.87 2.535 5.068 7.604 3.8 5.068-1.266 8.87 2.535 5.067 2.534 7.602 10.136 3.8 7.603 12.67 8.87 2.534 10.136 8.87 13.938 6.335 3.8 12.67 10.136 3.802 10.137 7.603 22.808 5.067 11.403 13.937 17.74 6.335 38.01 13.938 48.147 7.602 10.137 8.87 13.938 1.266 2.534 0 6.335v6.336l5.067 15.205-2.534 15.204 2.534 11.403-2.534 10.137 1.267 12.67-1.267 12.67 2.534 13.94q0 8.87-5.068 16.47-3.8 6.336-1.267 17.74-15.205 13.938-21.54 34.21-5.07 20.274-16.472 36.746v3.8q0 17.74-26.61 39.28-6.334 5.07-8.868 12.67h-1.267q-6.336-2.533-11.404 8.87h-5.068l-13.938 20.274q-2.534 0-17.74 6.335-15.204 6.335-25.34 16.47h-2.535q-3.8 0-5.068 2.535-1.267 1.267-6.335 0-2.534 5.07-8.87 6.336-6.335 1.268-7.602 7.603h-29.143q-12.67 0-25.34-6.335-7.604 3.8-19.007 3.8-10.137 0-22.808-5.067-11.403-5.068-25.34-6.335-8.87-11.403-12.672-21.54-3.8-11.404-8.87-12.67-3.8-1.268-7.602-3.802 0-13.938-17.74-21.54v-2.534q0-11.405-7.6-21.54Q156 779.684 156 767.013V746.74z" fill="gray"/></svg>