<svg xmlns="http://www.w3.org/2000/svg" width="720" height="1080" viewBox="0 0 720 1080"><path d="M222.523 892.454v-7.602l-5.07-2.534q-3.8-16.472-10.135-21.54-5.07-6.336-8.87-11.404-2.534-6.335-2.534-10.137 1.267-5.068-3.8-11.403-5.07-6.336-5.07-11.404l2.535-10.137-2.535-12.67q0-10.137 7.602-22.808 7.602-13.937 10.137-24.074 7.602-7.6 13.937-12.67 6.337-6.335 10.138-13.938 16.472-3.8 31.677-7.602 15.205-5.068 31.677-5.068l11.403 1.267 8.87 8.868q2.534 1.267 3.8 3.802 2.535 1.267 7.603 11.403 5.07 8.87 6.336 11.404 1.267 1.267 1.267 11.404 0 8.87-19.005 31.677-19.006 0-27.876-6.335v-2.534q0-12.67-15.206-12.67-13.937 0-25.34 7.602-11.405 7.602-11.405 16.47l1.266 19.008q0 7.602-2.534 11.403 6.336 12.672 11.404 25.343 5.068 12.67 12.67 25.34 13.938 3.802 25.342 10.138 11.404 5.07 34.21 5.07 22.808 0 57.02-15.206 7.602-5.068 15.204-12.67 7.602-8.87 16.472-11.404 8.87-15.205 22.807-24.075 0-13.937 7.604-24.074 8.87-11.403 8.87-20.272 0-10.137 2.533-13.938 3.802-3.8 5.07-7.602 1.266-3.802 0-7.603v-8.87l2.533-17.738-5.068-13.938 2.534-13.94-6.336-19.005 2.534-11.404q0-10.135-7.602-25.34l-5.068-2.534q-2.534-5.07-1.267-10.137 1.267-6.336-1.267-10.137-2.535-5.07-5.07-8.87-12.67-15.205-15.204-24.074-12.67-32.945-34.21-45.616-20.274-13.938-32.944-13.938-11.404 0-17.74 10.137h-5.068L301.08 544.01l-2.533 5.068h-6.335q-3.802 0-7.603 7.602-10.137 7.603-10.137 12.67 0 5.07-8.87 17.74-7.602 11.404-10.136 20.273-2.535 7.602-2.535 19.006 0 11.403-1.267 15.204-7.602 6.335-12.67 11.404-3.802 5.068-13.938 7.602-6.336 6.335-13.938 6.335-12.672 0-19.007-15.204-5.068-16.47-5.068-30.41l5.068-21.54v-3.8q-2.534 0-2.534-1.268l2.533-10.136-1.267-19.006q0-7.603 3.8-8.87-5.067-8.87-5.067-20.273l5.067-49.416-2.534-48.148 2.534-11.403-2.534-13.94 2.534-11.403-2.534-34.21V340.01l-8.87-152.048q0-20.273 3.802-39.28 8.87-8.87 24.074-8.87 15.204 0 25.34 3.803 11.404 2.534 25.342 5.068 13.938 1.267 27.875 1.267 15.205-1.267 32.944-1.267l13.94 2.534 12.67-2.534 3.8 2.534q6.336-6.335 29.144-6.335h24.074l12.67 3.8q3.802 0 7.603-2.533 3.803-2.535 11.405-3.803 7.602-2.534 19.006-1.267 11.405 1.267 24.075-1.267 1.267 8.87 8.87 11.404 7.602 1.267 7.602 13.938 0 11.403-6.335 26.608-13.938 11.404-34.21 10.137-19.007-2.534-35.48-2.534h-2.533l-3.802 6.335q-2.534 1.268-6.336 1.268-2.534-1.267-5.068-1.267l-26.61 7.604-17.738-2.535-32.943 7.602-35.478-6.336h-16.472q-6.336 0-10.137-1.267-8.87 3.8-8.87 29.142v5.068h1.268l1.267 1.267-2.533 13.938 8.87 63.354v22.806l-1.268 100.1v26.607q0 12.67 1.266 26.61h6.335q13.94 0 26.61-7.604 13.938-7.603 27.876-7.603h1.267l2.534-5.068q2.534-1.268 5.068 0h7.602q3.802 0 5.07-1.268 2.533-5.07 15.204-5.07h11.404q25.342 0 64.62 36.746 10.138 8.87 20.274 13.938 6.335 16.472 19.006 29.143 12.67 11.403 17.74 21.54 6.335 8.87 7.602 13.937l2.534 7.602 3.8 3.8q2.535 1.268 3.802 3.802 2.534 2.534 1.267 5.068 0 2.534 1.266 6.335 2.535 2.535 6.336 5.07 7.602 7.6 6.335 22.806 0 15.206 3.8 25.343 5.07 8.87 5.07 13.937 0 5.07-2.535 10.137-1.267 5.068-3.8 12.67-1.268 7.603 0 20.274 1.266 11.404-1.268 22.808-2.534 10.137-6.335 17.74-3.802 6.334-6.337 12.67-2.534 5.068-2.534 8.87 0 2.533-2.535 7.602-1.267 3.8-7.602 7.602-5.07 2.534-7.603 7.603-2.534 3.8-2.534 7.602 0 2.534-5.068 11.404-3.8 7.603-16.472 17.74-11.404 8.87-19.006 21.54-3.8 1.267-8.87 2.534-3.8 0-7.602 2.534-3.8-1.267-3.8 2.534 1.266 2.535-1.268 5.07-2.535 1.266-5.07 1.266-2.533-1.267-7.6 2.534-5.07 2.534-8.87 8.87-2.535 5.068-8.87 12.67-12.67 1.267-24.075 8.87-10.136 6.335-20.273 6.335h-13.937q-5.07 0-8.87 6.335-3.8 5.07-32.944 5.07-29.142 0-49.415-12.672-2.534-1.267-3.8-2.534-1.268-2.534-3.802-3.8-2.534-2.536-5.068-1.27-2.535 0-5.07-1.266-1.266-1.267-2.533-5.068 0-5.068-2.534-6.335-1.267-2.534-3.8-3.8-2.535-1.27-2.535-3.803z" fill="gray"/></svg>