<svg xmlns="http://www.w3.org/2000/svg" width="720" height="1080" viewBox="0 0 720 1080"><path d="M238.36 442.644q6.336-20.274 38.013-20.274t50.683 6.336q19.006 5.068 38.012 5.068h7.603q2.535-1.267 6.336-10.136l10.137-19.007q16.472-31.675 15.205-34.21 0-3.8 1.267-6.335 2.534-3.8 3.8-5.068 2.535-1.267 7.603-8.87 6.336-8.87 10.137-25.34 3.8-16.473 17.74-29.144 3.8-12.67 10.135-22.807 7.603-11.404 11.404-19.006 3.8-7.603 3.8-11.404 1.268-3.8 5.07-6.335l6.335-8.87q2.533-2.533 3.8-1.266 2.534 0 3.8-1.267 1.268-2.534 0-2.534v-3.8q0-2.535 3.803-3.802 3.8-1.266 3.8-5.068 0-8.87-11.403-8.87-10.136 0-19.006 11.404-6.335-2.534-11.404-2.534h-12.67q-10.137 0-12.67 5.07-2.535 5.067-10.138 5.067-6.335 0-12.67-3.802-6.336-3.802-12.67-6.336-10.138 2.534-13.94 8.87-2.533 6.335-19.005 6.335l-40.546-5.068q-3.8 0-19.005 10.135-16.472-5.068-32.944-5.068h-32.943l-48.15-2.534q-11.403-1.267-20.272-5.068-7.602-5.07-25.34-2.534-6.337-7.602-12.672-13.937-6.336-7.603-6.336-13.938 0-7.602 2.535-15.205 10.136-6.335 22.807-6.335h24.073l11.404-2.534q1.267 0 11.404 5.07 11.404 3.8 46.882 3.8l27.876-2.534 30.41 5.068 35.478-2.534 22.807 2.534q5.068 0 10.136-1.267 6.335-2.534 17.74-3.8 11.402-2.535 30.408-1.268 19.006 0 65.888-6.336 46.882-6.336 83.627-6.336h13.938q5.07 6.336 10.137 8.87 6.336 2.534 6.336 12.67 0 8.87-12.67 15.205-11.405 5.07-20.274 8.87-6.337 12.67-15.206 20.273-8.87 7.602-13.938 16.472-5.068 8.87-7.602 17.74-1.268 7.6-5.07 16.47-3.8 7.603-11.402 19.007-6.336 10.137-12.67 26.608-6.336 15.205-11.405 34.21-3.8 17.74-15.205 32.945v16.472q-12.67 12.67-20.273 45.615 11.403 15.205 74.756 15.205h12.67q3.802 0 10.138-1.267 6.335 3.8 10.136 10.136l7.603 12.67q-1.267 6.335-7.603 10.137-5.068 2.534-8.87 10.136-3.8 7.603-19.005 7.603-15.205 0-24.075-7.603h-5.068l-41.813-6.335q-19.007 0-30.41 20.273-2.535 2.535-2.535 6.336 0 7.603-7.603 11.404-6.335 3.8-5.068 7.602 2.534 3.802 2.534 6.336-7.602 13.937-6.335 20.273 1.267 5.07-1.267 11.405-2.534 6.335-6.336 10.136-3.8 3.802-6.335 10.138l-2.534 13.937q-3.8 21.54-13.937 40.547-10.136 17.74-10.136 40.546-15.205 13.938-32.944 68.422-16.472 53.217-24.075 59.552v3.802q0 3.8-2.534 11.403-2.534 7.603-3.8 12.67-1.268 3.802-3.802 7.603-2.534 3.802-2.534 7.603 1.267 3.8 1.267 10.136 0 5.068-8.87 11.403-7.602 6.335-5.068 19.006-6.336 5.067-8.87 13.937-2.534 8.87-6.335 15.205-16.472 6.335-54.484 10.136-12.67-12.67-12.67-34.21 0-22.808 17.738-40.547 6.336-8.868 7.603-27.874 1.266-20.274 11.402-31.677 2.534-8.87 3.8-19.007 2.536-10.137 6.337-19.006l5.067-2.535q2.534-2.534 1.267-6.335-1.267-5.068 8.87-29.143 11.403-24.074 10.136-43.08 3.8-7.602 8.87-12.67 5.068-5.07 7.602-8.87 2.534-5.07 1.267-8.87 0-3.8 2.533-11.403 2.535-7.602 7.603-19.006 5.068-12.67 8.87-22.807 3.8-11.403 5.068-20.273 2.534-10.137 7.602-26.61 5.068-16.47 15.205-39.278 10.138-22.807 13.94-46.88-5.07-11.405-16.473-10.138-10.137 1.267-35.478 1.267-24.076 0-59.554-7.602l-6.335-17.74z" fill="gray"/></svg>