<svg xmlns="http://www.w3.org/2000/svg" width="720" height="1080" viewBox="0 0 720 1080"><path d="M346.062 882.318l-26.608 6.335q-7.603 0-13.938-5.068-6.335-5.068-15.205-6.336l-7.6 1.267-2.536-1.268q-8.87-8.87-13.937-8.87-5.07-1.267-12.67-5.068-7.604-3.802-12.672-8.87-3.8-6.335-8.87-6.335-5.068 0-6.335 1.267-6.335-7.603-12.67-13.938-5.07-6.335-8.87-12.67-6.335-5.07-8.87-10.137l-5.068-2.535v-5.07q-3.8-3.8-8.87-3.8-3.8 0-8.87-10.136-5.067-11.405-11.402-25.343-6.336-13.938-13.938-29.143v-8.87l-7.603-111.5q0-65.89 8.87-74.76 10.135-10.135 7.6-17.738-2.533-8.87 8.87-20.273l5.07-12.67 2.533-2.535q1.267 0 3.802-7.602 3.8-7.603 8.87-17.74 5.067-10.136 15.204-16.47 11.403-6.337 16.47-11.405 5.07-6.334 7.603-11.402 2.534-6.336 8.87-15.205 6.335-8.87 20.273-17.74 13.938-10.136 20.273-24.074-3.802-5.07-5.07-10.137 0-6.336-2.533-10.137-17.74-7.602-25.342-63.354-2.534-12.67-2.534-22.807 0-40.546 20.274-58.285 5.068-3.8 2.534-10.137 10.137-5.068 16.472-12.67 7.603-8.87 19.006-11.404 2.535-6.336 6.336-8.87 5.068-2.535 17.74-15.205 12.67-12.67 29.14-12.67 16.473 0 26.61 2.533 10.137 2.534 15.205 5.068t7.602 2.534h2.533q0-1.267 2.535-2.534l10.136 1.267q3.8 0 6.335-1.267 10.136 5.07 22.807 11.404 12.67 5.068 20.273 12.67l2.534 5.07 6.335-1.268q3.8 0 16.47 16.472 12.672 15.205 20.275 29.142l-1.268 6.336q0 1.267 8.87 12.67 8.87 10.137 8.87 26.61l5.068 13.937q-5.07 15.204-5.07 29.142 0 12.67 2.536 19.006-21.54 31.676-51.95 54.484 3.802 3.8 5.07 10.136 1.266 5.07 3.8 8.87 2.534 2.534 5.068 2.534 3.802 0 6.336 2.534 2.534 2.534 1.267 5.068-1.266 2.535 1.268 6.336l6.335 6.335q5.07 3.8 7.603 7.603 2.534 2.534 2.534 5.068t2.534 5.068q2.534 2.534 5.068 2.534t7.603 13.938q5.068 13.938 12.67 25.34 7.603 10.138 7.603 16.473-1.267 12.67 5.068 21.54Q564 521.202 564 530.072q0 7.602 5.067 11.403v3.8l-2.534 12.672q13.938 20.273 13.938 38.012 0 17.738-3.8 30.41-2.535 11.403-6.336 22.806-2.534 11.404-6.335 21.54-2.535 8.87-2.535 12.67L564 693.525q0 26.608-6.337 36.745-6.335 8.87-12.67 15.204l-11.404 11.404q-3.802 5.068-10.138 7.602-3.8 11.404-11.403 20.273-6.337 8.87-10.138 16.472-2.534 7.603-2.534 11.404 0 3.8-2.534 7.6-2.534 2.535-12.67 8.87-8.87 5.07-15.206 12.67-29.142 0-51.95 22.81-19.006 3.8-24.074 10.135-5.068 5.07-12.67 7.603-7.603 1.267-16.473 1.267-7.6-1.267-17.738-1.267zm35.478-489.09l-55.75-2.534q-2.535 0-2.535 2.534-13.938 6.335-22.807 19.006-8.87 12.67-22.808 19.006-3.8 17.74-13.938 26.608-10.136 7.603-19.006 22.808 1.267 3.8 1.267 11.403 0 7.602-5.068 16.47-3.8 8.87-7.602 26.61-2.534 16.472-2.534 46.882v36.745l2.533 12.67 2.534 10.137q2.534 5.068 3.8 19.006 2.535 12.67 1.268 32.944 0 20.273 2.534 31.677 3.8 15.206 21.54 53.218t27.875 45.614q19.006 12.67 58.285 12.67 40.547 0 82.36-24.073l11.404-7.604q5.068-2.534 13.938-5.068 8.87-3.8 17.74-21.54 8.868-17.74 6.334-22.807 11.404-8.87 20.273-19.006 8.87-10.136 17.738-19.006 10.137-10.136 10.137-51.95 6.335-6.335 5.068-12.67 0-6.336 1.267-10.137 2.534-5.067 3.8-5.067 2.535-1.267 5.07-5.07 3.8-3.8 3.8-19.005 0-16.472-6.334-25.34-5.07-8.87-7.603-19.007-2.534-11.403-3.8-21.54-1.268-11.403-3.802-22.807-6.335-5.068-8.87-13.937-1.266-8.87-3.8-15.205-10.137-10.136-21.54-30.41v-5.067l-6.336-2.535q-5.068-6.335-8.87-17.74-2.533-12.67-8.87-12.67-6.334-1.266-11.402-3.8-5.07-3.802-10.137-10.137-5.068-7.6-15.205-10.136v-2.534q0-5.068-5.068-6.335-5.068-1.267-7.603-3.8-20.274 2.533-39.28 2.533zm-30.41-53.217l41.814-6.335q19.006 0 38.012 7.603 27.876-11.404 48.15-15.205 10.135-26.61 10.135-43.08 0-16.472-8.868-38.013-8.87-21.54-19.006-27.875l-7.603-2.534-5.068-5.068q-1.267-2.534-5.068-5.068-3.8-3.8-10.137-6.335-5.068-2.536-7.602-8.87h-6.336q-8.87 0-16.472-5.07-6.335-5.067-15.204-5.067h-2.535q-19.005 11.403-30.408 10.136-27.876 24.074-45.615 46.88l-1.267 10.137q0 12.67 3.8 24.075 5.07 11.403 2.535 22.807 5.07 3.8 5.07 11.403 1.266 6.335 3.8 11.403 2.534 3.802 5.068 6.336 2.534 1.267 3.8 3.8 2.536 2.535 2.536 7.603 0 5.07 5.067 2.535 5.068 3.8 11.403 3.8z" fill="gray"/></svg>