<svg xmlns="http://www.w3.org/2000/svg" width="720" height="1080" viewBox="0 0 720 1080"><path d="M559.564 528.805l2.534 16.47-7.602 58.287q-6.336 5.068-7.603 15.205 0 10.136-8.87 13.937 2.535 7.603-1.266 31.677-3.802 24.076-6.336 29.144-1.266 5.068-10.135 12.67-8.87 7.603-3.802 21.54-5.068 0-6.335 3.802 0 3.8-7.602 2.534v3.8q1.267 10.138-5.07 17.74-6.334 6.336-8.868 13.938-2.534 1.267-6.336 2.534-3.8 0-10.136 5.07-6.335 3.8-13.938 13.937-6.335 10.135-20.273 11.402-5.068 2.534-7.602 8.87-2.535 5.068-6.336 8.87-2.534 2.533-3.8 2.533-2.535-1.267-13.94 11.404h-1.266q-10.136 0-13.937 3.8-2.534 3.8-7.602 8.87l-5.067-1.267q-12.67 0-25.342 12.67-2.533 0-3.8-2.534 0-2.535-3.8-2.535-5.07 6.335-12.672 8.87-7.602 1.267-13.938 7.602-2.534-1.267-10.136-1.267-6.336 0-13.938 3.8-6.336 0-10.137-2.533-3.802-3.8-10.137-5.068-5.07-1.268-12.67 0-6.336 1.266-16.473 1.266-8.87 0-11.404-3.8-7.602-11.405-22.807-8.87-12.672 0-16.473-8.87-2.534-10.137-5.068-15.205l-6.337-2.533 2.535-5.07q0-2.533-3.802-3.8-3.8-2.534-6.335-6.335-1.266-5.07-1.266-12.67 0-7.603-2.534-15.206-2.534-7.602-8.87-13.938-5.068-7.602-5.068-15.205 0-7.602 3.8-12.67l6.337-1.267q13.936 0 22.806 13.937 8.87 12.67 6.335 25.342 2.535 7.602 7.604 12.67 5.068 5.07 5.068 15.205 8.87 2.535 16.472 10.137 8.87 6.335 17.74 8.87 8.868 2.534 16.47 1.267 7.603-1.267 13.94-1.267l29.14 2.534q11.405 0 38.013-12.67 27.876-12.67 32.944-16.472 5.07-5.068 8.87-10.137 3.802-5.067 8.87-8.868 5.07-5.068 11.404-8.87 7.602-5.068 8.87-7.602 2.534-3.8 2.534-5.068 0-2.534 3.8-6.336 3.802-5.068 7.603-15.205 3.803-11.402 7.604-16.47 3.8-5.07 5.068-15.205 1.267-10.137 3.8-16.472 2.535-6.336 6.337-10.137 3.8-3.8 7.6-10.136-2.533-2.535-2.533-7.603 0-6.335 6.335-32.944 6.336-27.875 12.67-32.944l7.603-76.025-5.068-21.54 2.534-15.205-6.334-45.615q0-19.006-5.068-26.608-5.07-8.87-13.938-17.74-32.944 36.746-41.814 54.485h-1.267q-10.137 0-17.74 8.87-6.335 7.602-24.074 11.403-5.068 2.534-13.938 7.602-8.87 5.07-13.938 5.07h-7.602q-3.8 0-3.8 2.533 0 1.267-8.87 1.267l-41.814-3.8-19.006 1.266q-13.938 0-19.006-6.336-5.07-7.602-11.404-10.136-5.068-2.533-11.404-1.266-5.068 1.267-8.87-1.267-2.533-2.534-5.067-6.336-2.535-3.8-6.336-3.8-1.266-2.534-2.533-7.602 0-6.336-2.534-8.87-2.534-3.8-7.603-6.335-5.068-3.8-7.602-6.335-1.267-3.802-1.267-7.603 0-5.068-1.266-7.602l-5.068-2.534v-5.07q-6.336-12.67-6.336-21.54v-19.006q0-20.273 3.8-27.876 3.803-8.87 2.536-12.67-1.267-5.07-1.267-10.137 0-6.334 2.533-8.868 3.8-3.802 5.068-8.87 2.535-5.068 1.268-10.137 0-5.068 1.267-10.136 2.534-2.535 5.068-3.802 2.535-2.535 3.802-5.07 2.534-3.8 1.267-7.6 0-5.07 11.403-16.473 3.802-11.404 13.938-22.807 11.404-12.67 20.273-15.205 11.404-19.006 36.745-25.342 25.343-7.6 43.082-17.738h1.267l15.204 2.534 29.142-10.136q2.535 0 2.535 2.534 7.603 2.534 11.404 6.335 5.07 3.8 15.205 3.8 2.533 6.336 8.87 8.87 7.6 2.534 13.936 5.068 5.07 13.938 16.472 21.54 11.404 7.603 15.205 21.54 2.534 0 2.534 2.535 0 1.267 1.267 2.534 2.535 1.267 3.802 1.267 2.534-1.267 5.068 1.267 3.8 1.268 3.8 5.07 0 3.8 3.802 10.136 5.07 6.336 12.67 13.938 7.604 6.335 10.138 20.273l10.136 15.205q6.336 6.335 10.137 12.67 5.068 6.336 6.335 11.404 1.267 3.802 5.07 11.404 3.8 6.335 8.868 16.472 6.335 8.87 10.137 22.807 3.8 12.67 6.335 22.807 3.8 10.136 5.068 13.937l2.534 5.07q1.267 1.266 1.267 3.8v12.67q0 6.336 1.27 10.137 8.868 12.672 8.868 68.423l-2.534 25.342zm-243.278-92.497l13.938 2.534h1.267l3.802-5.068q2.534-1.267 3.8 0h5.07q3.8 0 10.136-3.8 7.603-5.07 11.404-5.07 5.068-1.266 7.602-2.534 2.534-2.534 2.534-3.8 0-2.535 2.535-3.802 2.534-1.267 5.068 0 2.535 0 5.07-1.267 2.533-2.533 3.8-6.334 2.534-3.802 5.07-6.336h6.334q10.137-6.335 8.87-10.136 0-5.07 3.8-11.404l5.07-2.534q2.533-2.534 1.266-5.068v-6.336q0-3.8 2.534-6.335 3.8-2.534 3.8-6.336 1.27-3.8 3.803-8.868-5.07-8.87-10.137-10.137-3.8-1.267-3.8-17.74 0-17.738-15.206-41.812-3.8-10.137-6.335-8.87-1.268 1.268-3.803-1.267-15.204-36.745-22.807-41.813l-8.87-8.87q-2.534-3.8-5.068-8.87-2.534-5.067-7.602-6.334 0-3.803-6.335 0-5.07 2.533-15.205 2.533l-30.41-2.534q-7.603 6.334-10.137 12.67-2.534 6.335-8.87 11.403-1.266 16.472-5.067 31.677-3.802 13.938-11.404 40.546-6.335 26.61-6.335 69.69 0 41.813 20.273 69.688 10.136 5.068 20.273 3.8 10.136-1.266 20.273-1.266z" fill="gray"/></svg>