<svg xmlns="http://www.w3.org/2000/svg" viewBox="0 0 180 1080" height="1080" width="180"><path d="M57.69 531.118q-21.54-17.74-26.61-19.006v-2.534q0-6.335-6.334-7.602 6.335-65.888 46.88-82.36 11.405 2.534 17.74 5.068 7.603 2.534 17.74 2.534 10.136 11.404 21.54 19.006 11.403 7.603 21.54 17.74 1.267 3.8 1.267 11.403 0 6.335-2.534 12.67-1.268 5.07 1.266 13.94-17.74 13.936-30.41 17.738-2.534 5.068-7.602 7.602-5.07 1.267-8.87 3.8H57.69zM155.254 893.5q0 19.007-6.335 40.547-5.07 20.273-35.48 20.273-29.142 0-38.01-7.602-7.604-8.87-13.94-8.87-5.067-1.267-3.8-7.602l-3.802 1.267q-3.8 0-8.87-2.534-5.067-12.672-5.067-27.877 0-15.204 2.535-30.41 11.403-6.335 25.34-17.738 13.94-12.67 21.54-12.67 8.87 0 15.206 3.8 7.604 2.534 13.94 7.603l15.204 10.136q13.938 11.404 21.54 21.54V893.5z" fill="gray"/></svg>