<?xml version="1.0" encoding="utf-8"?>
<!-- Generator: Adobe Illustrator 23.0.2, SVG Export Plug-In . SVG Version: 6.00 Build 0)  -->
<svg version="1.1" id="Layer_1" xmlns="http://www.w3.org/2000/svg" xmlns:xlink="http://www.w3.org/1999/xlink" x="0px" y="0px"
	 viewBox="0 0 153.9 53.9" style="enable-background:new 0 0 153.9 53.9;" xml:space="preserve">
<style type="text/css">
	.st0{fill:#AAB2AB;}
	.st1{fill:#FFFFFF;}
	.st2{fill-rule:evenodd;clip-rule:evenodd;}
</style>
<g id="surface1">
	<path class="st0" d="M4.4,0.6l145.4,0.3c2,0,3.8-0.3,3.8,4.1l-0.2,47.9H0.7V4.7C0.7,2.6,0.9,0.6,4.4,0.6z"/>
	<path d="M151,0H2.9C1.3,0,0,1.3,0,2.9v50.3c0,0.4,0.3,0.7,0.7,0.7h152.6c0.4,0,0.7-0.3,0.7-0.7V2.9C153.9,1.3,152.6,0,151,0z
		 M2.9,1.3H151c0.9,0,1.6,0.7,1.6,1.6c0,0,0,20.3,0,34.9H46.7c-3.9,7-11.4,11.8-19.9,11.8c-8.6,0-16.1-4.8-19.9-11.8H1.3
		c0-14.7,0-34.9,0-34.9C1.3,2,2,1.3,2.9,1.3z"/>
	<path class="st1" d="M44.3,25.1c0,9.7-7.8,17.5-17.5,17.5c-9.7,0-17.5-7.8-17.5-17.5c0,0,0,0,0,0c0-9.7,7.8-17.5,17.5-17.5
		C36.4,7.6,44.3,15.4,44.3,25.1C44.3,25.1,44.3,25.1,44.3,25.1z"/>
	<path d="M41,10.8c3.9,3.9,5.8,8.6,5.8,14.2s-1.9,10.3-5.7,14.1c-4,4-8.8,6-14.3,6c-5.5,0-10.1-2-14.1-5.9
		c-3.9-3.9-5.9-8.7-5.9-14.1c0-5.5,2-10.2,5.9-14.2C16.5,7,21.2,5,26.8,5C32.4,5,37.1,7,41,10.8z M15.3,13.4
		c-3.3,3.3-4.9,7.2-4.9,11.6s1.6,8.3,4.9,11.5c3.2,3.2,7.1,4.9,11.6,4.9s8.4-1.6,11.7-4.9c3.1-3,4.7-6.9,4.7-11.5
		c0-4.6-1.6-8.5-4.8-11.7c-3.2-3.2-7.1-4.8-11.6-4.8S18.4,10.2,15.3,13.4z M23.9,23.1c-0.5-1.1-1.3-1.6-2.3-1.6
		c-1.8,0-2.7,1.2-2.7,3.6s0.9,3.6,2.7,3.6c1.2,0,2-0.6,2.5-1.7l2.5,1.3c-1.2,2.1-2.9,3.1-5.3,3.1c-1.8,0-3.2-0.6-4.3-1.7
		c-1.1-1.1-1.6-2.6-1.6-4.6c0-1.9,0.6-3.4,1.7-4.5s2.5-1.7,4.2-1.7c2.5,0,4.2,1,5.3,2.9L23.9,23.1z M35.4,23.1
		c-0.5-1.1-1.2-1.6-2.2-1.6c-1.8,0-2.7,1.2-2.7,3.6s0.9,3.6,2.7,3.6c1.2,0,2-0.6,2.5-1.7l2.5,1.3c-1.2,2.1-2.9,3.1-5.2,3.1
		c-1.8,0-3.2-0.6-4.3-1.7C27.5,28.5,27,27,27,25.1c0-1.9,0.6-3.4,1.7-4.5c1.1-1.1,2.5-1.7,4.2-1.7c2.5,0,4.2,1,5.3,2.9L35.4,23.1z"
		/>
	<path class="st1" d="M80.2,19.5c0,7.6-6.2,13.8-13.8,13.8c-7.6,0-13.8-6.2-13.8-13.8S58.8,5.8,66.4,5.8C74,5.8,80.2,11.9,80.2,19.5
		z"/>
	<path d="M70.4,15.5c0-0.5-0.4-1-1-1h-6.1c-0.5,0-1,0.4-1,1v6.1h1.7v7.2h4.6v-7.2h1.7V15.5z"/>
	<path d="M68.5,11.7c0,1.1-0.9,2.1-2.1,2.1c-1.1,0-2.1-0.9-2.1-2.1s0.9-2.1,2.1-2.1C67.5,9.6,68.5,10.6,68.5,11.7z"/>
	<path class="st2" d="M66.4,4.3c-4.1,0-7.6,1.4-10.5,4.3c-2.9,3-4.4,6.5-4.4,10.6c0,4.1,1.5,7.6,4.4,10.5c2.9,2.9,6.4,4.4,10.5,4.4
		c4.1,0,7.6-1.5,10.7-4.4c2.8-2.8,4.2-6.3,4.2-10.4c0-4.2-1.4-7.7-4.3-10.6S70.5,4.3,66.4,4.3z M66.4,7c3.4,0,6.2,1.2,8.6,3.6
		c2.4,2.4,3.6,5.2,3.6,8.6c0,3.4-1.2,6.3-3.5,8.5c-2.5,2.4-5.3,3.6-8.7,3.6c-3.3,0-6.2-1.2-8.6-3.6c-2.4-2.4-3.6-5.3-3.6-8.5
		s1.2-6.2,3.6-8.6C60.2,8.2,63,7,66.4,7z"/>
	<path class="st1" d="M62.1,42c0.4,0,0.8,0,1.1,0.1c0.3,0.1,0.6,0.2,0.9,0.4c0.2,0.2,0.4,0.4,0.6,0.6c0.1,0.3,0.2,0.6,0.2,1
		c0,0.4-0.1,0.8-0.3,1.1c-0.2,0.3-0.5,0.5-0.9,0.7c0.5,0.2,0.9,0.4,1.2,0.8s0.4,0.8,0.4,1.4c0,0.4-0.1,0.8-0.3,1.1
		c-0.2,0.3-0.4,0.6-0.7,0.8c-0.3,0.2-0.6,0.3-1,0.4c-0.4,0.1-0.7,0.1-1.1,0.1h-4.1V42H62.1z M61.8,45.4c0.3,0,0.6-0.1,0.8-0.2
		c0.2-0.2,0.3-0.4,0.3-0.8c0-0.2,0-0.4-0.1-0.5c-0.1-0.1-0.2-0.2-0.3-0.3c-0.1-0.1-0.3-0.1-0.4-0.1c-0.2,0-0.3,0-0.5,0H60v2H61.8z
		 M62,49c0.2,0,0.4,0,0.5-0.1c0.2,0,0.3-0.1,0.4-0.2c0.1-0.1,0.2-0.2,0.3-0.3c0.1-0.1,0.1-0.3,0.1-0.5c0-0.4-0.1-0.7-0.4-0.9
		s-0.6-0.3-1-0.3h-2V49H62z"/>
	<path class="st1" d="M65.5,42h2.1l2,3.4l2-3.4h2.1l-3.2,5.2v3.3h-1.9v-3.3L65.5,42z"/>
	<path class="st1" d="M126.3,48.4c0.1,0.2,0.2,0.4,0.4,0.5c0.2,0.1,0.4,0.2,0.6,0.3c0.2,0.1,0.5,0.1,0.7,0.1c0.2,0,0.3,0,0.5,0
		c0.2,0,0.4-0.1,0.5-0.2c0.2-0.1,0.3-0.2,0.4-0.3c0.1-0.1,0.2-0.3,0.2-0.5c0-0.2-0.1-0.4-0.2-0.6c-0.1-0.1-0.3-0.3-0.6-0.4
		c-0.2-0.1-0.5-0.2-0.8-0.3c-0.3-0.1-0.6-0.2-0.9-0.2c-0.3-0.1-0.6-0.2-0.9-0.3c-0.3-0.1-0.6-0.3-0.8-0.4c-0.2-0.2-0.4-0.4-0.6-0.7
		c-0.1-0.3-0.2-0.6-0.2-1c0-0.4,0.1-0.8,0.3-1.1s0.4-0.6,0.7-0.8c0.3-0.2,0.6-0.4,1-0.5c0.4-0.1,0.8-0.2,1.1-0.2
		c0.4,0,0.9,0.1,1.3,0.1c0.4,0.1,0.8,0.3,1.1,0.5c0.3,0.2,0.6,0.5,0.8,0.8c0.2,0.4,0.3,0.8,0.3,1.3h-1.8c0-0.3-0.1-0.5-0.2-0.6
		c-0.1-0.2-0.2-0.3-0.4-0.4c-0.2-0.1-0.3-0.2-0.5-0.2c-0.2,0-0.4-0.1-0.6-0.1c-0.2,0-0.3,0-0.5,0c-0.2,0-0.3,0.1-0.4,0.2
		c-0.1,0.1-0.2,0.2-0.3,0.3c-0.1,0.1-0.1,0.3-0.1,0.5c0,0.2,0,0.3,0.1,0.4c0.1,0.1,0.2,0.2,0.4,0.3c0.2,0.1,0.4,0.2,0.8,0.3
		c0.3,0.1,0.8,0.2,1.3,0.3c0.2,0,0.4,0.1,0.7,0.2c0.3,0.1,0.6,0.2,0.8,0.4c0.3,0.2,0.5,0.4,0.7,0.7c0.2,0.3,0.3,0.7,0.3,1.2
		c0,0.4-0.1,0.7-0.2,1.1c-0.2,0.3-0.4,0.6-0.7,0.9c-0.3,0.2-0.7,0.4-1.1,0.6c-0.4,0.1-0.9,0.2-1.5,0.2c-0.5,0-0.9-0.1-1.4-0.2
		c-0.4-0.1-0.8-0.3-1.2-0.5c-0.3-0.2-0.6-0.6-0.8-0.9c-0.2-0.4-0.3-0.8-0.3-1.4h1.8C126.1,48,126.2,48.2,126.3,48.4z"/>
	<path class="st1" d="M136.8,42l3.2,8.5H138l-0.6-1.9h-3.2l-0.7,1.9h-1.9l3.2-8.5H136.8z M136.9,47.2l-1.1-3.1h0l-1.1,3.1H136.9z"/>
	<path class="st1" d="M93,42l3.5,5.7h0V42h1.8v8.5h-1.9l-3.5-5.7h0v5.7h-1.7V42H93z"/>
	<path class="st1" d="M105.4,44.3c-0.1-0.2-0.3-0.3-0.4-0.5c-0.2-0.1-0.4-0.2-0.6-0.3c-0.2-0.1-0.4-0.1-0.7-0.1
		c-0.4,0-0.8,0.1-1.1,0.2c-0.3,0.2-0.5,0.4-0.7,0.7c-0.2,0.3-0.3,0.6-0.4,0.9c-0.1,0.4-0.1,0.7-0.1,1.1c0,0.4,0,0.7,0.1,1
		c0.1,0.3,0.2,0.6,0.4,0.9c0.2,0.3,0.4,0.5,0.7,0.7c0.3,0.2,0.7,0.2,1.1,0.2c0.6,0,1-0.2,1.3-0.5c0.3-0.4,0.5-0.8,0.6-1.4h1.8
		c0,0.5-0.2,1-0.4,1.4c-0.2,0.4-0.5,0.8-0.8,1.1c-0.3,0.3-0.7,0.5-1.1,0.7c-0.4,0.2-0.9,0.2-1.4,0.2c-0.7,0-1.2-0.1-1.8-0.3
		c-0.5-0.2-1-0.5-1.3-0.9c-0.4-0.4-0.6-0.9-0.8-1.4c-0.2-0.5-0.3-1.1-0.3-1.7c0-0.6,0.1-1.2,0.3-1.8c0.2-0.5,0.5-1,0.8-1.4
		c0.4-0.4,0.8-0.7,1.3-1s1.1-0.3,1.8-0.3c0.5,0,0.9,0.1,1.3,0.2c0.4,0.1,0.8,0.3,1.1,0.6c0.3,0.3,0.6,0.6,0.8,1
		c0.2,0.4,0.4,0.8,0.4,1.3h-1.8C105.6,44.6,105.5,44.4,105.4,44.3z"/>
	<path class="st1" d="M147,19.2c0,7.5-6.1,13.6-13.6,13.6c-7.5,0-13.6-6.1-13.6-13.6c0,0,0,0,0,0c0-7.5,6.1-13.6,13.6-13.6
		C140.9,5.6,147,11.7,147,19.2C147,19.2,147,19.2,147,19.2z"/>
	<path d="M133.3,4.3c-4.1,0-7.6,1.4-10.5,4.3c-2.9,3-4.4,6.5-4.4,10.6s1.5,7.6,4.4,10.5c2.9,2.9,6.4,4.4,10.5,4.4
		c4.1,0,7.6-1.5,10.6-4.4c2.8-2.8,4.2-6.3,4.2-10.4s-1.4-7.7-4.3-10.6C141,5.8,137.5,4.3,133.3,4.3z M133.3,7c3.4,0,6.2,1.2,8.6,3.6
		c2.4,2.3,3.6,5.2,3.6,8.6c0,3.4-1.2,6.3-3.5,8.5c-2.5,2.4-5.4,3.6-8.7,3.6c-3.3,0-6.2-1.2-8.6-3.6c-2.4-2.4-3.6-5.3-3.6-8.6
		s1.2-6.2,3.7-8.6C127.1,8.2,130,7,133.3,7z"/>
	<path d="M126.7,17.1c0.6-3.7,3.2-5.7,6.5-5.7c4.7,0,7.6,3.4,7.6,8c0,4.5-3.1,8-7.7,8c-3.2,0-6-2-6.6-5.8h3.7c0.1,2,1.4,2.7,3.3,2.7
		c2.1,0,3.5-2,3.5-5c0-3.1-1.2-4.8-3.4-4.8c-1.6,0-3,0.6-3.3,2.6l1.1,0l-2.9,2.9l-3-2.9L126.7,17.1z"/>
	<path class="st1" d="M113.7,19.2c0,7.6-6.2,13.8-13.8,13.8c-7.6,0-13.8-6.2-13.8-13.8c0,0,0,0,0,0c0-7.6,6.2-13.8,13.8-13.8
		C107.5,5.4,113.7,11.6,113.7,19.2C113.7,19.2,113.7,19.2,113.7,19.2z"/>
	<path d="M99.8,4.3c4.2,0,7.7,1.4,10.6,4.3c2.9,2.9,4.3,6.4,4.3,10.6s-1.4,7.6-4.2,10.4c-3,3-6.6,4.4-10.6,4.4
		c-4,0-7.5-1.5-10.5-4.4c-2.9-2.9-4.4-6.4-4.4-10.5s1.5-7.6,4.4-10.6C92.2,5.8,95.7,4.3,99.8,4.3z M88.3,15.2
		c-0.4,1.3-0.7,2.6-0.7,4c0,3.3,1.2,6.1,3.6,8.6c2.4,2.4,5.3,3.6,8.6,3.6s6.2-1.2,8.7-3.6c0.8-0.8,1.5-1.7,2-2.6l-5.6-2.5
		c-0.4,1.9-2.1,3.2-4.1,3.3v2.3h-1.7v-2.3c-1.7,0-3.3-0.7-4.5-1.8l2-2.1c1,0.9,2,1.3,3.3,1.3c0.9,0,1.8-0.3,1.8-1.5
		c0-0.4-0.2-0.7-0.4-0.9l-1.4-0.6l-1.8-0.8c-0.9-0.4-1.6-0.7-2.4-1L88.3,15.2z M99.9,7c-3.4,0-6.2,1.2-8.6,3.6
		c-0.6,0.6-1.2,1.3-1.7,2l5.7,2.5c0.5-1.6,2-2.5,3.8-2.6v-2.3h1.7v2.3c1.2,0.1,2.5,0.4,3.7,1.4l-2,2c-0.7-0.5-1.6-0.9-2.5-0.9
		c-0.7,0-1.8,0.2-1.8,1.2c0,0.1,0,0.3,0.1,0.4l1.9,0.8l1.3,0.6c0.8,0.4,1.6,0.7,2.4,1.1l7.6,3.4c0.3-1,0.4-2.1,0.4-3.2
		c0-3.4-1.2-6.3-3.6-8.6C106.1,8.2,103.2,7,99.9,7z"/>
</g>
</svg>
