<svg xmlns="http://www.w3.org/2000/svg" width="720" height="1080" viewBox="0 0 720 1080"><path d="M69.176 756.02V322.58q0-153.8 78.3-225.107Q227.17 24.767 360 24.767t211.127 72.706q79.697 71.307 79.697 225.108v433.44q0 155.2-79.697 227.906-78.3 71.307-211.127 71.307-132.828 0-212.525-71.307-78.3-72.706-78.3-227.906zm92.28 0q0 213.924 198.544 213.924 198.543 0 198.543-213.924V322.58q0-212.524-198.543-212.524T161.457 322.58v433.44zm148.21-215.32q0-22.372 13.98-36.354 15.38-13.982 37.752-13.982 20.973 0 34.955 13.982 15.38 13.982 15.38 36.353 0 20.972-15.38 36.352-13.982 15.38-34.955 15.38-22.37 0-37.75-15.38-13.983-15.38-13.983-36.353z" fill="gray"/></svg>