<svg xmlns="http://www.w3.org/2000/svg" width="720" height="1080" viewBox="0 0 720 1080"><path d="M72.672 1010.49V874.868q0-64.317 48.937-124.44 48.935-60.12 118.845-110.456l137.022-99.27q69.91-50.336 118.847-113.254 48.936-64.317 48.936-131.43 0-72.706-50.335-128.634-48.936-55.927-138.42-55.927-75.503 0-123.04 43.344-46.142 41.944-46.142 121.64 0 15.38-13.98 26.567-12.585 11.185-34.956 11.185-41.946 0-41.946-57.326 0-100.67 75.503-166.384Q247.446 24.767 359.3 24.767q120.245 0 198.544 76.9 79.697 76.9 79.697 191.552 0 69.91-34.954 134.226-34.955 64.316-86.688 109.06-51.733 44.74-113.253 90.88L289.39 708.483q-51.732 34.955-86.686 79.697-34.955 43.343-34.955 86.687v86.687H613.77q13.98 0 23.77 12.584 9.786 12.584 9.786 29.362t-9.787 30.76q-9.787 12.584-23.768 12.584H116.016q-15.38 0-29.362-9.787-13.982-11.186-13.982-26.566z" fill="gray"/></svg>