<svg xmlns="http://www.w3.org/2000/svg" width="720" height="1080" viewBox="0 0 720 1080"><path d="M69.176 824.532q0-27.964 9.788-37.75 9.787-11.187 33.556-11.187 47.54 0 47.54 39.15 0 57.325 46.14 106.262 47.538 48.937 151.004 48.937 201.34 0 201.34-209.73V733.65q0-93.68-53.132-139.82Q453.68 547.69 360 547.69q-36.353 0-36.353-39.15 0-40.547 34.955-40.547 88.086 0 131.43-39.15 43.344-40.547 43.344-139.818 0-92.28-40.548-135.625-40.547-44.742-128.633-44.742-97.874 0-138.42 46.14-40.55 44.743-40.55 103.467 0 44.742-44.74 44.742-26.567 0-37.752-11.186-9.787-11.184-9.787-41.944 0-33.557 12.583-68.512t40.547-71.308q27.964-37.75 85.29-61.52 57.325-23.77 135.624-23.77 255.87 0 255.87 246.082 0 90.883-32.16 151.005-30.76 60.122-82.492 85.29 142.616 57.325 142.616 226.506v26.565q0 152.403-81.095 223.71-79.698 71.308-211.128 71.308-138.42 0-213.923-71.307-75.504-71.308-75.504-159.394z" fill="gray"/></svg>