<svg xmlns="http://www.w3.org/2000/svg" width="720" height="1080" viewBox="0 0 720 1080"><path d="M62.185 768.604q0-13.982 5.593-23.77L418.724 52.732q13.982-27.963 43.344-27.963 15.38 0 29.362 11.185 15.38 11.186 15.38 26.566 0 8.39-4.195 18.176L179.633 718.27H453.68V448.42q0-34.956 46.14-34.956 18.176 0 32.157 9.787 13.982 8.39 13.982 25.17v269.85h76.9q16.778 0 25.167 13.98 9.788 12.585 9.788 29.363 0 18.177-9.788 32.16-9.787 12.582-25.167 12.582h-76.9v204.136q0 16.78-13.983 26.567-13.98 9.787-32.158 9.787-19.576 0-33.558-9.787-12.583-9.788-12.583-26.566V806.356H98.537q-36.353 0-36.353-37.75z" fill="gray"/></svg>