<svg xmlns="http://www.w3.org/2000/svg" width="720" height="1080" viewBox="0 0 720 1080"><path d="M69.875 817.54q0-46.14 44.743-46.14 47.538 0 47.538 39.15 0 74.104 55.928 117.448 55.927 41.946 141.217 41.946 95.078 0 146.81-51.733 51.734-53.13 51.734-159.393V732.25q0-103.465-51.733-155.198Q454.38 525.32 360.7 525.32H166.35q-47.538 0-47.538-34.956v-13.982q1.398-11.185 1.398-13.982l27.964-402.678q4.195-34.955 29.362-34.955H569.03q30.76 0 30.76 41.946 0 43.343-30.76 43.343H230.666l-22.37 335.566h152.402q132.827 0 211.126 68.512 78.3 68.51 78.3 218.117v26.567q0 152.403-79.698 225.11-78.3 71.306-209.73 71.306-134.225 0-212.524-68.51-78.3-68.512-78.3-169.182z" fill="gray"/></svg>