<svg xmlns="http://www.w3.org/2000/svg" width="720" height="1080" viewBox="0 0 720 1080"><path d="M69.176 756.02V322.58q0-153.8 79.697-225.107 79.697-72.706 213.923-72.706 134.227 0 211.127 71.308 76.9 69.91 76.9 167.782 0 41.946-43.343 41.946-48.937 0-48.937-37.75 0-71.31-57.326-114.653Q443.89 110.056 360 110.056q-198.543 0-198.543 212.525v213.925q68.51-92.28 211.127-92.28 278.24 0 278.24 278.24v33.555q0 155.2-79.697 227.906-78.3 71.307-211.127 71.307-132.828 0-212.525-71.307-78.3-72.706-78.3-227.906zm92.28 4.195q0 212.525 198.544 212.525 198.543 0 198.543-212.525v-33.557q0-202.737-198.543-202.737T161.457 714.076v46.14z" fill="gray"/></svg>