<svg xmlns="http://www.w3.org/2000/svg" width="720" height="1080" viewBox="0 0 720 1080"><path d="M69.176 270.848V59.722q0-12.584 12.584-23.77 13.982-11.185 29.362-11.185H607.48q15.38 0 29.362 11.185 13.982 11.186 13.982 23.77v120.244q0 19.575-13.982 40.548l-415.263 810.95q-8.39 18.177-30.76 18.177-22.372 0-39.15-12.583-16.78-12.584-16.78-32.16 0-5.59 5.594-19.573l418.06-799.765v-75.504H161.456v160.792q0 13.982-13.982 25.168-13.982 9.787-32.158 9.787-19.575 0-33.557-9.787-12.584-11.186-12.584-25.168z" fill="gray"/></svg>