<svg xmlns="http://www.w3.org/2000/svg" width="720" height="1080" viewBox="0 0 720 1080"><path d="M69.176 767.206v-16.778q0-199.942 152.403-261.462Q97.14 437.233 97.14 269.45 97.14 24.767 360 24.767T622.86 269.45q0 167.783-123.04 219.516 151.004 60.122 151.004 261.462v16.778q0 148.208-79.697 218.118T360 1055.234q-131.43 0-211.127-69.91T69.176 767.206zm92.28-6.99q0 106.262 51.734 160.79 53.13 53.132 148.208 53.132 95.077 0 145.412-53.13 51.733-54.53 51.733-160.793V740.64q0-208.33-198.543-208.33T161.457 740.64v19.575zm26.567-483.775q0 173.377 171.977 173.377 173.376 0 173.376-173.376 0-170.578-173.376-170.578-171.977 0-171.977 170.58z" fill="gray"/></svg>