<svg xmlns="http://www.w3.org/2000/svg" viewBox="0 0 180 1080" height="1080" width="180"><path d="M26.382 990.916q0-27.963 18.177-46.14 18.175-19.574 46.14-19.574 25.167 0 43.343 19.574 19.575 19.575 19.575 46.14 0 25.168-19.575 44.743-18.176 19.573-43.344 19.573-27.965 0-46.14-18.176-18.178-19.575-18.178-46.14zm0-469.792q0-27.963 18.177-46.14Q62.734 455.41 90.7 455.41q25.167 0 43.343 19.574 19.575 19.575 19.575 46.14 0 25.168-19.575 44.743Q115.867 585.44 90.7 585.44q-27.965 0-46.14-18.175-18.178-19.575-18.178-46.14z" fill="gray"/></svg>