<svg xmlns="http://www.w3.org/2000/svg" viewBox="0 0 720 1080" height="1080" width="720"><g fill="gray"><path d="M180 60c-44.032 0-82.36 23.492-103.236 58.664a1.5 1.5 0 0 1 .375.276c31.055 31.065 66.216 48.336 103.3 59.63a1.5 1.5 0 0 1 1.124 1.43H538.5a1.5 1.5 0 0 1 .064-.433c11.36-37.3 28.822-72.902 60.147-104.31C581.37 65.553 561.363 60 540 60H180z"/><path d="M601.336 76.764a1.5 1.5 0 0 1-.276.375c-31.065 31.055-48.33 66.216-59.625 103.3A1.5 1.5 0 0 1 540 181.5v296.994a1.5 1.5 0 0 1 .012 0 1.5 1.5 0 0 1 .3.04c41.22 8.782 81.9 27.106 119.688 59.515V180c0-44.032-23.49-82.36-58.664-103.236zM75.258 121.29C65.552 138.63 60 158.64 60 180v358.043c37.786-32.408 78.47-50.727 119.69-59.508a1.5 1.5 0 0 1 .25-.035 1.5 1.5 0 0 1 .013-.006 1.5 1.5 0 0 1 .047-.006V181.523a1.5 1.5 0 0 1-.44-.087c-37.3-11.36-72.896-28.822-104.302-60.147z"/><path d="M181.57 480a1.5 1.5 0 0 1-1.26 1.47C139.667 490.13 99.633 508.124 62.34 540c37.295 31.878 77.327 49.877 117.973 58.535A1.5 1.5 0 0 1 181.5 600h357a1.5 1.5 0 0 1 1.19-1.465c40.645-8.658 80.677-26.657 117.972-58.535-37.294-31.877-77.328-49.87-117.973-58.53a1.5 1.5 0 0 1-1.22-1.47h-356.9z"/><path d="M60 541.963V900c0 21.362 5.552 41.37 15.258 58.71 31.406-31.324 67.003-48.78 104.303-60.14a1.5 1.5 0 0 1 .4-.07 1.5 1.5 0 0 1 .04 0V601.506a1.5 1.5 0 0 1-.31-.035c-41.22-8.78-81.904-27.1-119.69-59.507z" opacity=".1"/><path d="M660 541.963c-37.786 32.408-78.47 50.727-119.69 59.508a1.5 1.5 0 0 1-.31.03v296.983a1.5 1.5 0 0 1 1.435 1.084c11.295 37.083 28.56 72.245 59.625 103.3a1.5 1.5 0 0 1 .276.37C636.508 982.36 660 944.032 660 900V541.963z"/><path d="M181.506 900a1.5 1.5 0 0 1-1.067 1.435c-37.084 11.295-72.245 28.56-103.3 59.625a1.5 1.5 0 0 1-.376.282C97.64 996.512 135.97 1020 180 1020h360c21.36 0 41.367-5.548 58.705-15.252-31.323-31.406-48.78-67.01-60.14-104.31a1.5 1.5 0 0 1-.07-.438h-356.99z"/></g></svg>